<?xml version="1.0" encoding="UTF-8" standalone="no"?>
<svg width="45px" height="45px" viewBox="0 0 45 45" version="1.1" xmlns="http://www.w3.org/2000/svg" xmlns:xlink="http://www.w3.org/1999/xlink">
    <!-- Generator: Sketch 3.6.1 (26313) - http://www.bohemiancoding.com/sketch -->
    <title>aquasenso-section-3-icons-08</title>
    <desc>Created with Sketch.</desc>
    <defs></defs>
    <g id="Page-1" stroke="none" stroke-width="1" fill="none" fill-rule="evenodd">
        <g id="aquasenso-section-3-icons-08">
            <g id="Page-1" transform="translate(1.000000, 1.000000)">
                <path d="M42.9604464,21.4801588 C42.9604464,33.3433273 33.343424,42.9603498 21.4802554,42.9603498 C9.61708689,42.9603498 6.44194757e-05,33.3433273 6.44194757e-05,21.4801588 C6.44194757e-05,9.61699026 9.61708689,-3.22097379e-05 21.4802554,-3.22097379e-05 C33.343424,-3.22097379e-05 42.9604464,9.61699026 42.9604464,21.4801588 L42.9604464,21.4801588 Z" id="Stroke-1" stroke="#0D56A5" stroke-width="2"></path>
                <path d="M24.1470285,10.7276464 C24.1470285,12.2403768 22.9206427,13.4667625 21.4079124,13.4667625 C19.895182,13.4667625 18.6687963,12.2403768 18.6687963,10.7276464 C18.6687963,9.2149161 19.895182,7.98853034 21.4079124,7.98853034 C22.9206427,7.98853034 24.1470285,9.2149161 24.1470285,10.7276464" id="Fill-3" fill="#0D56A5"></path>
                <path d="M28.7530371,18.4907569 L26.1092618,17.5798655 C26.0820446,17.555064 26.0577262,17.5281689 26.0274491,17.5057831 L22.8494753,15.0056633 C22.8169434,14.981506 22.7813517,14.9647569 22.7470483,14.945109 C22.3798573,14.6577981 21.9197412,14.4846708 21.4203292,14.4846708 L21.2486513,14.4846708 C20.39767,14.4846708 19.6594228,14.9842438 19.3072094,15.7034873 L17.2699434,18.5653225 C17.2327412,18.6212064 17.2029472,18.6799891 17.1776625,18.7398993 C17.0797449,18.8510228 17.0030858,18.983727 16.9581532,19.1343075 L16.150333,21.9037007 C15.9846139,22.4610903 16.3051007,23.0527831 16.8624903,23.2185022 C17.4198798,23.3842213 18.0114116,23.0637345 18.1771307,22.5063449 L18.9603105,19.8218243 C18.9836625,19.7936408 19.0094303,19.7680341 19.0303667,19.7367906 L19.0862506,19.6581989 L19.0862506,24.2659629 C19.0862506,24.3640416 19.0951082,24.4600266 19.1079921,24.5548843 L15.3502431,32.5797794 C15.0506925,33.2196258 15.3289846,33.9881502 15.96867,34.2877007 C16.6085165,34.5872513 17.3768798,34.3089592 17.6765914,33.6691127 L21.0713367,26.4193449 C21.1299584,26.4241764 21.1889022,26.4283637 21.2486513,26.4283637 L21.4203292,26.4283637 C21.512288,26.4283637 21.6024753,26.4206333 21.6916963,26.4093599 L22.5109509,27.828521 C22.5434828,27.884888 22.5835839,27.9336858 22.6227187,27.9832888 L23.3190933,33.4792363 C23.4125015,34.2161951 24.0918049,34.7426633 24.8287637,34.6492551 C25.5657225,34.5558468 26.0923517,33.8765434 25.9989434,33.1395846 L25.2600521,27.3084948 C25.2207562,26.9987981 25.0772618,26.72727 24.8703142,26.5222551 C24.8625839,26.5077607 24.8585577,26.4923 24.8503442,26.4779667 L23.5819247,24.2811015 C23.5820858,24.2759479 23.58273,24.2709554 23.58273,24.2659629 L23.58273,18.2715697 L24.7730408,19.2080678 C24.8271532,19.2478468 24.8843255,19.2803787 24.9429472,19.3085622 C25.0492393,19.4116333 25.1780783,19.4947345 25.3264041,19.5467532 L28.0539247,20.4863112 C28.6026176,20.6786034 29.2089659,20.3869442 29.4012581,19.8380903 C29.5935502,19.2893974 29.301891,18.6830491 28.7530371,18.4907569" id="Fill-5" fill="#0D56A5"></path>
            </g>
        </g>
    </g>
</svg>