<?xml version="1.0" encoding="UTF-8" standalone="no"?>
<svg width="45px" height="45px" viewBox="0 0 45 45" version="1.1" xmlns="http://www.w3.org/2000/svg" xmlns:xlink="http://www.w3.org/1999/xlink">
    <!-- Generator: Sketch 3.6.1 (26313) - http://www.bohemiancoding.com/sketch -->
    <title>aquasenso-section-3-icons-05</title>
    <desc>Created with Sketch.</desc>
    <defs></defs>
    <g id="Page-1" stroke="none" stroke-width="1" fill="none" fill-rule="evenodd">
        <g id="aquasenso-section-3-icons-05">
            <g id="Page-1" transform="translate(1.000000, 1.000000)">
                <path d="M42.9604464,21.4801588 C42.9604464,33.3433273 33.343424,42.9603498 21.4802554,42.9603498 C9.61708689,42.9603498 6.44194757e-05,33.3433273 6.44194757e-05,21.4801588 C6.44194757e-05,9.61699026 9.61708689,-3.22097379e-05 21.4802554,-3.22097379e-05 C33.343424,-3.22097379e-05 42.9604464,9.61699026 42.9604464,21.4801588 L42.9604464,21.4801588 Z" id="Stroke-1" stroke="#0D56A5" stroke-width="2"></path>
                <path d="M31.8095157,32.4843419 C31.8095157,32.8061172 34.7368978,33.1182296 33.7773697,33.3847652 C33.0273659,33.5930011 32.0221,34.0898363 30.8235757,33.933297 C28.0625569,33.57287 28.6885532,34.2169037 27.7196843,34.2317202 C22.0979577,34.3175592 31.8095157,32.4843419 24.7360963,32.8375217 C21.7832685,32.9848813 24.831115,34.3592708 22.082336,34.4154768 C20.8627142,34.4402783 22.0311225,35.501106 18.6120588,35.0160273 C14.8855532,34.4874655 20.653512,33.318091 17.3777816,33.2219449 C15.5257217,33.1676715 15.2116768,34.1510348 11.1418154,33.5851097 C10.2940551,33.467061 10.4480176,33.4216453 9.93137341,33.2444918 C9.25770674,33.013709 8.88504007,32.7597352 8.88504007,32.4931996 C8.88504007,32.3105704 9.0597779,32.1339 9.38654569,31.9664094 C9.70268427,31.8043944 14.6317404,31.601473 15.2116768,31.4599112 C16.4287217,31.1627764 13.7097367,30.9672633 15.8027255,30.8020273 C17.1920925,30.6923532 18.096864,30.8820685 19.7305419,30.8511472 C20.2924408,30.840518 21.5006281,30.5709225 22.082336,30.5709225 C22.7595457,30.5709225 23.0893734,30.8368139 23.7392049,30.8511472 C25.3078191,30.8857727 26.0431674,30.4633419 27.3793884,30.5709225 C28.3964109,30.6527352 31.8642723,30.7218251 31.2395644,31.1088251 C30.5747554,31.5207876 29.0475307,31.4064431 29.4833285,31.4919599 C29.8163772,31.5571846 33.3225682,31.4819749 33.5974783,31.5533195 C34.6687742,31.8311285 31.8095157,32.1429187 31.8095157,32.4843419" id="Fill-3" fill="#0D56A5"></path>
                <path d="M18.4894363,20.2535798 C18.3847547,20.2489094 18.2974663,20.3324936 18.2974663,20.4371753 L18.2976273,21.0171116 C18.2976273,21.1515873 18.1578371,21.2406472 18.0360843,21.183636 L17.5704925,20.9665423 C17.4878745,20.9278906 17.4303801,21.0288682 17.3392266,21.0319281 C17.2772228,21.0340217 17.1889682,20.8339993 17.1889682,20.8339993 C17.2226273,20.7441341 17.1813989,20.6436397 17.0945936,20.6030554 L17.0256648,20.5708457 C16.8890955,20.5072315 16.8829757,20.3155835 17.0148745,20.2431116 L17.2194064,20.1310217 L16.9863689,20.0223139 C16.9676873,20.0136172 16.9504551,20.0016996 16.9357996,19.9873663 L16.8018071,19.8565948 C16.6829532,19.7406397 16.7666985,19.5390067 16.9327397,19.5412614 C17.0543315,19.5428719 17.1440356,19.4282052 17.1129532,19.3104787 L16.9902341,18.8460142 C16.9565749,18.7184637 17.0641554,18.5979993 17.1946049,18.617164 L17.4770843,18.6583925 C17.5415037,18.6677333 17.5962603,18.7107333 17.6207397,18.7711266 L17.7181742,19.0109281 C17.7647172,19.1252727 17.9083727,19.1621528 18.0041966,19.0845273 L18.5143989,18.6711154 C18.6459757,18.5646622 18.8393951,18.6773963 18.8115337,18.8442427 L18.7078184,19.4641191 C18.6991217,19.5164599 18.7134551,19.5699281 18.7469532,19.6108345 L18.7870543,19.6599543 C18.9861105,19.9032989 18.8034813,20.26743 18.4894363,20.2535798 M19.5592828,20.3589056 C19.6082416,20.1526022 19.8139007,19.9425948 19.7944139,19.7370966 C19.7797584,19.582973 19.3400955,19.6602764 19.2895262,19.5145273 C19.242339,19.3787633 19.586339,19.0188195 19.5096798,18.8961004 C19.3392903,18.6234449 19.0980393,18.3900854 18.7951067,18.2261378 L7.9943764,12.3829693 C7.06109925,11.8779206 5.89414045,12.2253026 5.38909176,13.1590629 C4.88388202,14.0926622 5.231103,15.2592989 6.1648633,15.7643476 L16.9655936,21.6075161 C17.2564476,21.7648607 17.6188071,22.0054674 17.9278596,22.0054674 C18.0293202,22.0054674 17.9404213,21.6448794 18.0399494,21.6289356 C18.1826386,21.6063888 18.4630243,21.7543925 18.5970169,21.7006022 C18.6749644,21.6693588 18.5205187,21.2124637 18.8650019,21.2124637 C19.0957846,21.2124637 19.2080356,21.3280966 19.3602266,21.144018 C19.4391404,21.0488382 18.8759532,20.8768382 18.9369906,20.7639431 C18.9838558,20.677621 19.6572004,20.6568457 19.6895712,20.5671416 C19.7143727,20.4983738 19.5426948,20.4288007 19.5592828,20.3589056" id="Fill-5" fill="#0D56A5"></path>
                <path d="M23.9786843,19.6599221 L24.0187854,19.6108022 C24.0522835,19.5698959 24.0666169,19.5164277 24.0579202,19.4640869 L23.9542049,18.8442105 C23.9263434,18.677364 24.1197629,18.56463 24.2513397,18.6710831 L24.7615419,19.0844951 C24.8573659,19.1622816 25.0010213,19.1252404 25.0475644,19.0108959 L25.1449989,18.7710944 C25.1694783,18.7107011 25.2242348,18.6678622 25.2886543,18.6583603 L25.5711337,18.6171318 C25.7015831,18.5981281 25.8091637,18.7184315 25.7755045,18.845982 L25.6527854,19.3106075 C25.621703,19.428173 25.7114071,19.5430007 25.8329989,19.5412292 C25.9990401,19.5389745 26.0827854,19.7406075 25.9639315,19.8567236 L25.829939,19.9873341 C25.8151225,20.0018285 25.7980513,20.013585 25.7793697,20.0222816 L25.5463322,20.1309895 L25.750703,20.2430794 C25.8827629,20.3155513 25.8766431,20.5071993 25.7400738,20.5709745 L25.6711449,20.6030232 C25.5843397,20.6436075 25.5431112,20.7442629 25.5767704,20.833967 C25.5767704,20.833967 25.4885157,21.0339895 25.426512,21.0318959 C25.3353584,21.028997 25.277864,20.9280195 25.1952461,20.9665101 L24.7296543,21.1837648 C24.6079015,21.240615 24.4681112,21.1515551 24.4681112,21.0170794 L24.4682723,20.4373041 C24.4682723,20.3324614 24.3809839,20.2488772 24.2763022,20.2535476 C23.9622573,20.2673978 23.7796281,19.9032667 23.9786843,19.6599221 M23.0761674,20.5671094 C23.1085382,20.6568135 23.7818828,20.6775888 23.8287479,20.7639109 C23.8897854,20.876967 23.3265981,21.048806 23.405512,21.1441468 C23.557703,21.3280644 23.6699539,21.2125925 23.9007367,21.2125925 C24.2452199,21.2125925 24.0907742,21.6693266 24.1687217,21.70057 C24.3027142,21.7543603 24.5831,21.6063566 24.7257891,21.6290644 C24.8253172,21.6448472 24.7364184,22.0054352 24.837879,22.0054352 C25.1467704,22.0054352 25.509291,21.7648285 25.8001449,21.6076449 L36.6008753,15.7643154 C37.5346356,15.2592667 37.8818566,14.092791 37.3766468,13.1590307 C36.8715981,12.2252704 35.7046393,11.8780494 34.7713622,12.3829371 L23.9706318,18.2261056 C23.6676993,18.3900532 23.4264483,18.6235738 23.2560588,18.8960682 C23.1793996,19.0187873 23.5233996,19.3787311 23.4762124,19.5144951 C23.4256431,19.6602442 22.9859801,19.5829408 22.9713247,19.7370644 C22.9518378,19.9427236 23.157497,20.15257 23.2064558,20.3588734 C23.2230438,20.4287685 23.0513659,20.4983416 23.0761674,20.5671094" id="Fill-7" fill="#0D56A5"></path>
                <path d="M19.6034584,15.825385 L17.6157955,12.9147521" id="Stroke-9" stroke="#0D56A5" stroke-width="6" stroke-linecap="round" stroke-linejoin="round"></path>
                <path d="M23.1622801,16.1171569 L25.3733176,12.8794341" id="Stroke-11" stroke="#0D56A5" stroke-width="6" stroke-linecap="round" stroke-linejoin="round"></path>
                <path id="Stroke-13" stroke="#0D56A5" stroke-width="6" stroke-linecap="round" stroke-linejoin="round" d="M21.482188,14.6949037 L21.482188,10.1219262"></path>
                <path d="M19.7956861,22.0054513 L19.0737049,23.9568783 C18.9511468,24.2883165 19.0469708,24.6608221 19.3139895,24.892088 L19.3507086,24.9239757 C19.669424,25.1998521 20.142424,25.1998521 20.4609783,24.9236536 L20.4609783,24.9236536 C20.7455513,24.677088 20.8334839,24.2723727 20.6766225,23.9299831 L19.7956861,22.0054513 Z" id="Fill-15" fill="#0D56A5"></path>
                <path d="M24.191961,24.7166738 L23.4699798,26.6681007 C23.3474217,26.999539 23.4432457,27.3720446 23.7102644,27.6033105 L23.7469835,27.6351981 C24.0656989,27.9110745 24.5386989,27.9110745 24.8572532,27.634876 C25.1418262,27.3883105 25.2297588,26.9835951 25.0728974,26.6412056 L24.191961,24.7166738 Z" id="Fill-17" fill="#0D56A5"></path>
            </g>
        </g>
    </g>
</svg>