<?xml version="1.0" encoding="UTF-8" standalone="no"?>
<svg width="45px" height="45px" viewBox="0 0 45 45" version="1.1" xmlns="http://www.w3.org/2000/svg" xmlns:xlink="http://www.w3.org/1999/xlink">
    <!-- Generator: Sketch 3.6.1 (26313) - http://www.bohemiancoding.com/sketch -->
    <title>aquasenso-icon-01</title>
    <desc>Created with Sketch.</desc>
    <defs></defs>
    <g id="Page-1" stroke="none" stroke-width="1" fill="none" fill-rule="evenodd">
        <g id="aquasenso-icon-01">
            <g id="Page-1" transform="translate(1.000000, 2.000000)">
                <path d="M41.960062,20.9806202 C41.960062,32.5679011 32.5669832,41.9612719 20.9800625,41.9612719 C9.39314173,41.9612719 6.29213483e-05,32.5679011 6.29213483e-05,20.9806202 C6.29213483e-05,9.39333933 9.39314173,-3.14606742e-05 20.9800625,-3.14606742e-05 C32.5669832,-3.14606742e-05 41.960062,9.39333933 41.960062,20.9806202 L41.960062,20.9806202 Z" id="Stroke-1" stroke="#0D56A5" stroke-width="2"></path>
                <path d="M32.5903798,21.0984404 L29.5339753,21.0136539 C29.5339753,21.0136539 29.1595933,23.5009348 29.0389416,24.6895191 C28.9513236,25.5520135 28.5412337,26.0258112 27.6763798,26.0343056 C25.209391,26.0590022 22.7424022,26.0634067 20.1041101,26.0766202 C20.3331438,22.4117663 20.5506944,18.9306427 20.7746944,15.3466427 C24.6468742,15.3497888 28.4724921,15.3337438 32.2966944,15.3996539 C32.5430315,15.4039011 32.9732562,16.0342157 32.9817506,16.3815416 C33.0055034,17.3621708 32.7630989,19.4321258 32.7630989,19.4321258 L32.5903798,21.0984404 Z" id="Fill-3" fill="#0D56A5"></path>
                <path d="M13.4766517,17.8503775 C12.0558876,17.8140404 10.6797978,17.7789618 9.26642697,17.7429393 C9.51937079,18.4836809 9.71474157,19.2628045 10.0458652,19.9790067 C10.5797528,21.1340854 10.1330112,21.8394337 9.15065169,22.4219281 C8.81417978,22.6213888 8.37420225,22.9120854 8.2972809,23.2361303 C8.00532584,24.4645124 7.84298876,25.7234112 7.61426966,27.0765348 C9.30779775,26.9466022 10.8114607,26.8312989 12.3730112,26.7114337 C12.7536854,23.6551865 13.126809,20.6591865 13.4766517,17.8503775 M19.3094607,15.3278607 C19.078382,18.9941303 18.8589438,22.4774562 18.6300674,26.1078607 C17.3139101,26.0361303 16.0672809,25.9683326 14.9631685,25.9080854 C14.7759775,26.1558382 14.7003146,26.2101079 14.6930787,26.2722427 C14.3754831,28.9970517 14.3226292,28.7840629 11.653191,28.9876135 C10.0987191,29.1060629 8.54550562,29.2389843 6.99024719,29.3457933 C5.57325843,29.443164 5.06375281,28.9165124 5.28995506,27.5462427 C5.88991011,23.9092315 6.51865169,20.2769393 7.12505618,16.6408719 C7.25404494,15.8680404 7.62622472,15.3582202 8.45348315,15.3541303 C12.022382,15.3361978 15.5911236,15.3352539 19.3094607,15.3278607" id="Fill-5" fill="#0D56A5"></path>
                <path d="M29.3737461,20.1063596 L29.3737461,16.6782472 C31.2421955,16.6782472 33.0972742,16.8044045 34.9265551,16.6415955 C36.6419483,16.4888539 37.7962404,17.3013258 39.0678809,18.4345393 C37.9200382,19.2227865 37.0630494,20.2348764 35.4846674,20.1364045 C33.4889596,20.0119775 31.4795663,20.1063596 29.3737461,20.1063596" id="Fill-7" fill="#0D56A5"></path>
                <path d="M36.4746562,7.8396382 L4.67593708,34.5220652" id="Stroke-9" stroke="#0D56A5" stroke-width="2"></path>
            </g>
        </g>
    </g>
</svg>