<?xml version="1.0" encoding="UTF-8" standalone="no"?>
<svg width="220px" height="75px" viewBox="0 0 220 75" version="1.1" xmlns="http://www.w3.org/2000/svg" xmlns:xlink="http://www.w3.org/1999/xlink">
    <!-- Generator: Sketch 3.6.1 (26313) - http://www.bohemiancoding.com/sketch -->
    <title>aquasenso-rolunk-logok-02</title>
    <desc>Created with Sketch.</desc>
    <defs></defs>
    <g id="Page-1" stroke="none" stroke-width="1" fill="none" fill-rule="evenodd">
        <g id="aquasenso-rolunk-logok-02" fill="#837893">
            <g id="Page-1" transform="translate(23.000000, 22.000000)">
                <g id="Group-3" transform="translate(0.000000, 1.413779)">
                    <path d="M5.37525211,24.4283383 C5.34339296,24.4837709 5.24781549,24.5441309 5.09464648,24.6106501 C4.71968873,24.7658615 4.32267465,24.8656402 3.90360423,24.9099863 C3.4845338,24.9543324 3.10957606,24.9765055 2.77873099,24.9765055 C1.72982958,24.9765055 1.00564648,24.7153562 0.602505634,24.1955212 C0.200590141,23.6744544 -0.000367605634,22.8811518 -0.000367605634,21.8168452 L-0.000367605634,0.763529519 C-0.000367605634,0.587376916 0.0327169014,0.47035246 0.0964352113,0.414919823 C0.162604225,0.359487185 0.282688732,0.331154949 0.45546338,0.331154949 L1.95774507,0.331154949 C2.13174507,0.331154949 2.25060423,0.359487185 2.31677324,0.414919823 C2.3817169,0.47035246 2.41480141,0.587376916 2.41480141,0.763529519 L2.41480141,21.0851344 C2.41480141,21.7293848 2.4969,22.1777732 2.66232254,22.4327634 C2.82897042,22.6877535 3.15368873,22.8146326 3.63892817,22.8146326 C3.85949155,22.8146326 4.06902676,22.8047779 4.2675338,22.7813731 C4.46604085,22.7604318 4.65229437,22.7370269 4.82997042,22.7148539 C5.07259014,22.6705078 5.20370282,22.7604318 5.22698451,22.9809305 L5.39240704,24.0784968 C5.41323803,24.2558812 5.40833662,24.3729057 5.37525211,24.4283383" id="Fill-1"></path>
                </g>
                <path d="M18.8912535,17.2108857 L14.6233521,17.2108857 C14.2251127,17.2108857 13.7521268,17.2441453 13.199493,17.3118963 C12.6480845,17.3784155 12.1260845,17.5397861 11.6285915,17.796008 C11.1323239,18.05223 10.7132535,18.4316356 10.3713803,18.9317612 C10.029507,19.4331186 9.8591831,20.1180196 9.8591831,20.9864643 C9.8591831,21.6541196 9.98539437,22.2121415 10.2390423,22.6568344 C10.4926901,23.1027592 10.8345634,23.4599917 11.264662,23.7273002 C11.6947606,23.9933769 12.1849014,24.1781523 12.7375352,24.2779311 C13.2889437,24.3789417 13.8624085,24.4282151 14.4579296,24.4282151 C14.6564366,24.4282151 14.9260141,24.4171286 15.2678873,24.3949555 C15.6097606,24.3727825 15.9908451,24.3395229 16.4099155,24.293945 C16.8277606,24.2495988 17.2529577,24.1781523 17.6842817,24.0771417 C18.1131549,23.977363 18.5150704,23.8603385 18.8912535,23.7273002 L18.8912535,17.2108857 Z M21.3713662,24.5279939 C21.3713662,24.9271089 21.2169718,25.1931855 20.9081831,25.3262238 C19.9168732,25.7475119 18.858169,26.0369934 17.7332958,26.190973 C16.6084225,26.3461844 15.527662,26.4237901 14.4910141,26.4237901 C13.0794085,26.4237901 11.9214507,26.2685787 11.0159155,25.9569241 C10.1116056,25.6465013 9.396,25.2399953 8.86542254,24.7398697 C8.33729577,24.2397442 7.96723944,23.660781 7.75770423,23.0054441 C7.54816901,22.3488753 7.44401408,21.6652061 7.44401408,20.9532047 C7.44401408,20.130338 7.58615493,19.3579766 7.87411268,18.6348886 C8.15961972,17.9130325 8.59584507,17.2847959 9.18033803,16.7501789 C9.76483099,16.2167938 10.4975915,15.8004331 11.3810704,15.499865 C12.2633239,15.1992969 13.3097746,15.0490129 14.5240986,15.0490129 L18.9231127,15.0490129 L18.9231127,14.1633225 C18.9231127,13.617619 18.8679718,13.1088706 18.7589155,12.6395409 C18.6486338,12.1702113 18.4390986,11.7698644 18.1303099,11.442196 C17.8202958,11.1145275 17.3901972,10.8583055 16.8400141,10.6722982 C16.2886056,10.4862909 15.5705493,10.3926714 14.6882958,10.3926714 C13.961662,10.3926714 13.161507,10.4653497 12.2902817,10.6094746 C11.4190563,10.7535994 10.6752676,10.9248247 10.0576901,11.1243822 C9.90329577,11.1687283 9.78076056,11.185974 9.69376056,11.1748875 C9.60553521,11.1638009 9.53814085,11.0800361 9.49525352,10.9248247 L9.16440845,9.71762501 C9.09823944,9.4700259 9.18523944,9.30126432 9.42785915,9.21010842 C9.82609859,9.05243337 10.2561972,8.91200402 10.7193803,8.78882038 C11.1825634,8.66563674 11.6629014,8.55846698 12.1579437,8.46731108 C12.6542113,8.37738703 13.1553803,8.31579521 13.6626761,8.28130379 C14.1699718,8.24804421 14.6441831,8.2307985 15.0865352,8.2307985 C17.226,8.2307985 18.8091549,8.70751918 19.8347746,9.66096054 C20.859169,10.6156337 21.3713662,12.0113044 21.3713662,13.8516679 L21.3713662,24.5279939 Z" id="Fill-4"></path>
                <path d="M28.1866521,17.5772339 L35.4652437,8.8632233 C35.5314127,8.77453108 35.598807,8.70801191 35.6649761,8.6636658 C35.7299197,8.61931969 35.8402014,8.59714664 35.9945958,8.59714664 L38.1132296,8.59714664 C38.2222859,8.59714664 38.2884549,8.64149275 38.3117366,8.73018497 C38.3325676,8.81887719 38.3117366,8.89648288 38.2443423,8.96300205 L33.7779338,14.3510544 L38.9734268,25.7258316 C39.0163141,25.7923507 39.0224408,25.8650291 38.988131,25.9414029 C38.9562718,26.0202405 38.8741732,26.0584274 38.7406099,26.0584274 L36.9540465,26.0584274 C36.6452577,26.0584274 36.4467507,25.9475621 36.3585254,25.7258316 L32.1237085,16.3133698 L28.0555394,21.06949 L28.0555394,25.6260528 C28.0555394,25.8034373 28.026131,25.9192299 27.9722155,25.9746625 C27.9158493,26.0300952 27.8018915,26.0584274 27.6242155,26.0584274 L26.1035535,26.0584274 C25.9479338,26.0584274 25.8327507,26.0300952 25.7555535,25.9746625 C25.677131,25.9192299 25.6391451,25.8034373 25.6391451,25.6260528 L25.6391451,2.17804724 C25.6391451,2.0006628 25.677131,1.88363834 25.7555535,1.82820571 C25.8327507,1.77277307 25.9479338,1.74567267 26.1035535,1.74567267 L27.6242155,1.74567267 C27.8018915,1.74567267 27.9158493,1.77277307 27.9722155,1.82820571 C28.026131,1.88363834 28.0555394,2.0006628 28.0555394,2.17804724 L28.0555394,17.5107147 L28.1866521,17.5772339 Z" id="Fill-6"></path>
                <g id="Group-10" transform="translate(40.436620, 0.181942)">
                    <path d="M6.77411408,5.95387213 C6.66260704,5.90952602 6.59276197,5.86517991 6.55845211,5.8208338 C6.52536761,5.77648769 6.55232535,5.66562241 6.64177606,5.48823797 L8.79104366,0.532560197 C8.83638169,0.421694923 8.89519859,0.333002703 8.97362113,0.266483538 C9.05081831,0.199964374 9.17702958,0.177791319 9.35348028,0.199964374 L11.3054662,0.698858109 C11.6375366,0.765377274 11.7024803,0.920588658 11.5039732,1.16449226 L8.16366338,6.05365087 C8.00926901,6.27538142 7.81076197,6.34190059 7.5669169,6.25320837 L6.77411408,5.95387213 Z M11.9352972,17.0293131 L7.66739577,17.0293131 C7.26915634,17.0293131 6.79617042,17.0625726 6.24353662,17.1290918 C5.69212817,17.195611 5.16890282,17.3582134 4.67263521,17.6144353 C4.17636761,17.8706573 3.75729718,18.2488311 3.41542394,18.7501885 C3.07232535,19.2515459 2.90322676,19.9364469 2.90322676,20.8048916 C2.90322676,21.4725469 3.02943803,22.0305688 3.28308592,22.4752617 C3.53550845,22.9211865 3.87860704,23.2771872 4.30870563,23.5444957 C4.73880423,23.8118042 5.22894507,23.9953478 5.78035352,24.0963584 C6.33298732,24.197369 6.90522676,24.2466424 7.50197324,24.2466424 C7.70048028,24.2466424 7.97005775,24.2355559 8.31193099,24.2133829 C8.65380423,24.1912098 9.03488873,24.1579502 9.45395915,24.1123723 C9.87180423,24.0680262 10.2970014,23.9953478 10.7283254,23.8955691 C11.1571986,23.7957903 11.5591141,23.6787659 11.9352972,23.5444957 L11.9352972,17.0293131 Z M14.4154099,24.3464212 C14.4154099,24.7455362 14.2610155,25.0116128 13.9522268,25.1446512 C12.9609169,25.5659392 11.9022127,25.8541889 10.7773394,26.0094003 C9.6524662,26.1646117 8.57170563,26.2422174 7.53505775,26.2422174 C6.12345211,26.2422174 4.96426901,26.0857742 4.05995915,25.7753514 C3.1556493,25.4636968 2.44004366,25.0584226 1.9094662,24.558297 C1.38133944,24.0569396 1.0112831,23.4792084 0.801747887,22.8226396 C0.592212676,22.1673026 0.488057746,21.4836334 0.488057746,20.771632 C0.488057746,19.9487653 0.630198592,19.175172 0.918156338,18.4533159 C1.20366338,17.7314598 1.63988873,17.1019914 2.22438169,16.5686063 C2.80887465,16.0352211 3.54163521,15.6188604 4.42511408,15.3182923 C5.30736761,15.0177242 6.35381831,14.8674402 7.5669169,14.8674402 L11.9671563,14.8674402 L11.9671563,13.9817498 C11.9671563,13.4360463 11.9120155,12.9272979 11.8029592,12.4579682 C11.6926775,11.9874067 11.4831423,11.5882917 11.1743535,11.2606233 C10.8643394,10.9329548 10.4342408,10.675501 9.88405775,10.4907255 C9.3326493,10.3034864 8.61459296,10.2110987 7.73233944,10.2110987 C7.00448028,10.2110987 6.2055507,10.283777 5.33432535,10.42667 C4.4631,10.5720267 3.71931127,10.743252 3.1017338,10.9428095 C2.94733944,10.9871556 2.82480423,11.0044013 2.73780423,10.9920829 C2.64957887,10.9822282 2.58218451,10.8984634 2.53929718,10.743252 L2.20722676,9.53482049 C2.1422831,9.28845322 2.2292831,9.1184598 2.47190282,9.02853574 C2.8689169,8.87086068 3.30024085,8.73043134 3.76342394,8.60601586 C4.22660704,8.48283222 4.70694507,8.37566246 5.20198732,8.2857384 C5.69825493,8.19581434 6.19942394,8.13422253 6.70671972,8.09973111 C7.21401549,8.06647152 7.68822676,8.04922582 8.12935352,8.04922582 C10.2700437,8.04922582 11.8531986,8.5259465 12.877593,9.47938786 C13.9032127,10.4328292 14.4154099,11.8297317 14.4154099,13.6700952 L14.4154099,24.3464212 Z" id="Fill-8"></path>
                </g>
                <g id="Group-13" transform="translate(57.428571, 7.908916)">
                    <path d="M13.3714159,13.5593196 C13.3714159,14.3797226 13.2170215,15.1003469 12.9082328,15.7211924 C12.5994441,16.3420379 12.1693455,16.8581774 11.617937,17.2683789 C11.0665286,17.6785804 10.4158666,17.9890032 9.66717646,18.1996472 C8.91603561,18.4102912 8.09995111,18.5149973 7.21892294,18.5149973 C6.20310604,18.5149973 5.12724688,18.4152186 3.99257082,18.2156611 C2.85544406,18.0161036 1.84697928,17.6835078 0.964725755,17.2178736 C0.854444064,17.1735275 0.772345473,17.1008492 0.717204628,17.0010704 C0.662063783,16.9012917 0.67799336,16.7744125 0.766218712,16.6192011 L1.29679618,15.4883753 C1.40585252,15.2222987 1.61538773,15.144693 1.92417646,15.2555583 C2.80642998,15.6768463 3.71564125,15.9823417 4.65426097,16.1708127 C5.59042998,16.3592837 6.44572575,16.4529032 7.21892294,16.4529032 C8.34257082,16.4529032 9.25790885,16.2200861 9.96371167,15.754452 C10.6695145,15.2888178 11.0224159,14.5903666 11.0224159,13.6590983 C11.0224159,12.7721761 10.6474581,12.0737249 9.89754266,11.5637446 C9.14762716,11.0537643 8.08892294,10.5437841 6.72142998,10.0338038 C5.77300744,9.70120799 4.96917646,9.36861217 4.30748632,9.03601635 C3.64579618,8.70342052 3.10419054,8.3437243 2.68512012,7.95569584 C2.2660497,7.56766738 1.96216237,7.14022015 1.77590885,6.674586 C1.58842998,6.20895184 1.49530322,5.65462547 1.49530322,5.01160688 C1.49530322,3.65905053 1.99647223,2.53931126 3.00003561,1.65238906 C4.00237364,0.765466862 5.44216237,0.322005764 7.31817646,0.322005764 C8.22126097,0.322005764 9.09248632,0.393452274 9.93062716,0.538808967 C10.768768,0.682933824 11.6069089,0.93299661 12.4450497,1.28653365 C12.6876694,1.39739893 12.7648666,1.58586989 12.6778666,1.85194655 L12.1472891,3.14907027 C12.0811201,3.25993554 12.0161765,3.32029552 11.9487821,3.33261389 C11.8826131,3.34370041 11.7943877,3.32645471 11.684106,3.2821086 C10.8447398,2.94951277 10.0850215,2.7166957 9.40127505,2.58365737 C8.71752857,2.45061904 8.00069759,2.38409987 7.25078209,2.38409987 C6.23619054,2.38409987 5.4262328,2.61691695 4.8196835,3.0825511 C4.21190885,3.54818525 3.90924688,4.14685774 3.90924688,4.87856855 C3.90924688,5.29985659 3.98644406,5.65955282 4.14083843,5.9601209 C4.29400744,6.25945714 4.53540181,6.53046114 4.86624688,6.77436475 C5.19464125,7.01826835 5.62351449,7.25724461 6.1504159,7.49006168 C6.67854266,7.72287876 7.31695111,7.97170971 8.06319054,8.23778637 C8.78982435,8.50386303 9.46989477,8.79211274 10.1083032,9.10253551 C10.744261,9.41295828 11.3054722,9.77388634 11.7894863,10.1840879 C12.2735004,10.5942894 12.6570356,11.0697782 12.9425427,11.6130181 C13.2292751,12.1574897 13.3714159,12.8054357 13.3714159,13.5593196" id="Fill-11"></path>
                </g>
                <path d="M76.688662,17.5772339 L83.9672535,8.8632233 C84.0334225,8.77453108 84.1008169,8.70801191 84.1669859,8.6636658 C84.2319296,8.61931969 84.3422113,8.59714664 84.4966056,8.59714664 L86.6152394,8.59714664 C86.7242958,8.59714664 86.7904648,8.64149275 86.8137465,8.73018497 C86.8345775,8.81887719 86.8137465,8.89648288 86.7463521,8.96300205 L82.2799437,14.3510544 L87.4754366,25.7258316 C87.5183239,25.7923507 87.5244507,25.8650291 87.4901408,25.9414029 C87.4582817,26.0202405 87.3761831,26.0584274 87.2426197,26.0584274 L85.4560563,26.0584274 C85.1472676,26.0584274 84.9487606,25.9475621 84.8605352,25.7258316 L80.6257183,16.3133698 L76.5575493,21.06949 L76.5575493,25.6260528 C76.5575493,25.8034373 76.5281408,25.9192299 76.4742254,25.9746625 C76.4178592,26.0300952 76.3039014,26.0584274 76.1262254,26.0584274 L74.6055634,26.0584274 C74.4499437,26.0584274 74.3347606,26.0300952 74.2575634,25.9746625 C74.1791408,25.9192299 74.1411549,25.8034373 74.1411549,25.6260528 L74.1411549,2.17804724 C74.1411549,2.0006628 74.1791408,1.88363834 74.2575634,1.82820571 C74.3347606,1.77277307 74.4499437,1.74567267 74.6055634,1.74567267 L76.1262254,1.74567267 C76.3039014,1.74567267 76.4178592,1.77277307 76.4742254,1.82820571 C76.5281408,1.88363834 76.5575493,2.0006628 76.5575493,2.17804724 L76.5575493,17.5107147 L76.688662,17.5772339 Z" id="Fill-14"></path>
                <path d="M90.2201028,8.64691283 C90.2862718,8.59148019 90.4063563,8.56314795 90.5840324,8.56314795 L92.0728352,8.56314795 C92.2492859,8.56314795 92.3705958,8.59148019 92.4367648,8.64691283 C92.5029338,8.70234547 92.5360183,8.81936992 92.5360183,8.99552253 L92.5360183,18.0421289 C92.5360183,19.1286086 92.6021873,20.0611088 92.7345254,20.8371657 C92.8668634,21.6119908 93.1315394,22.250082 93.5285535,22.7489758 C93.9255676,23.2478695 94.4831028,23.6186522 95.1987085,23.8625558 C95.9155394,24.1076913 96.8590606,24.2284113 98.0280465,24.2284113 C98.2927225,24.2284113 98.7497789,24.2123974 99.4004408,24.1791378 C100.051103,24.1458782 100.763032,24.0510268 101.535004,23.8958154 L101.535004,8.99552253 C101.535004,8.81936992 101.568089,8.70234547 101.631807,8.64691283 C101.697976,8.59148019 101.818061,8.56314795 101.992061,8.56314795 L103.493117,8.56314795 C103.645061,8.56314795 103.760244,8.59148019 103.836215,8.64691283 C103.912187,8.70234547 103.950173,8.81936992 103.950173,8.99552253 L103.950173,23.8958154 C103.950173,25.1387383 103.344849,25.8692173 102.135427,26.0909479 C101.826638,26.135294 101.479863,26.1796401 101.095103,26.2239862 C100.710342,26.2683323 100.319455,26.3015919 99.9236662,26.3237649 C99.5278775,26.345938 99.146793,26.3619519 98.7840887,26.3742702 C98.4213845,26.3841249 98.1076944,26.3902841 97.8442437,26.3902841 C96.4142577,26.3902841 95.2085113,26.2461593 94.2294549,25.9579095 C93.2516239,25.6696598 92.4588211,25.2040257 91.8534972,24.5610071 C91.2481732,23.9179885 90.8082718,23.0815716 90.533793,22.0505245 C90.2580887,21.0194775 90.1208493,19.750686 90.1208493,18.2416864 L90.1208493,8.99552253 C90.1208493,8.81936992 90.1539338,8.70234547 90.2201028,8.64691283" id="Fill-16"></path>
                <path d="M113.991199,25.8421169 C113.959339,25.8975496 113.863762,25.9579095 113.710593,26.0244287 C113.335635,26.1796401 112.938621,26.2794188 112.519551,26.3237649 C112.10048,26.3681111 111.725523,26.3902841 111.394677,26.3902841 C110.345776,26.3902841 109.621593,26.1291348 109.218452,25.6092998 C108.816537,25.0882331 108.615579,24.2949304 108.615579,23.2306238 L108.615579,2.17730814 C108.615579,2.00115553 108.648663,1.88413108 108.712382,1.82869844 C108.778551,1.7732658 108.898635,1.74493357 109.07141,1.74493357 L110.573692,1.74493357 C110.747692,1.74493357 110.866551,1.7732658 110.93272,1.82869844 C110.997663,1.88413108 111.030748,2.00115553 111.030748,2.17730814 L111.030748,22.498913 C111.030748,23.1431634 111.112846,23.5915518 111.278269,23.846542 C111.444917,24.1015321 111.769635,24.2284113 112.254875,24.2284113 C112.475438,24.2284113 112.684973,24.2185566 112.88348,24.1951517 C113.081987,24.1742105 113.268241,24.1508056 113.445917,24.1286325 C113.688537,24.0842864 113.819649,24.1742105 113.842931,24.3947092 L114.008354,25.4922754 C114.029185,25.6696598 114.024283,25.7866843 113.991199,25.8421169" id="Fill-18"></path>
                <path d="M115.661721,10.5590924 C115.484045,10.5590924 115.374989,10.5209055 115.329651,10.4432998 C115.285538,10.3656941 115.264707,10.2708427 115.264707,10.1599775 L115.264707,9.36174748 C115.264707,9.2065361 115.285538,9.09567082 115.329651,9.02915166 C115.374989,8.96263249 115.484045,8.90719986 115.661721,8.86285375 L118.275397,8.43047918 L118.731228,5.20429969 C118.753285,5.00474219 118.797397,4.87170386 118.861115,4.8051847 C118.927285,4.73866553 119.047369,4.67214637 119.220144,4.6056272 L120.101172,4.27303138 C120.405059,4.20651221 120.558228,4.32846402 120.558228,4.63888678 L120.558228,8.59677709 L124.42789,8.59677709 C124.605566,8.59677709 124.715848,8.63496402 124.759961,8.71256971 C124.804073,8.79140724 124.82613,8.89611333 124.82613,9.02915166 L124.82613,10.1599775 C124.82613,10.2930158 124.804073,10.3927945 124.759961,10.4593137 C124.715848,10.5258329 124.605566,10.5590924 124.42789,10.5590924 L120.558228,10.5590924 L120.558228,21.7675717 C120.558228,22.5879747 120.723651,23.2038929 121.05327,23.6140945 C121.385341,24.024296 122.023749,24.2287808 122.973397,24.2287808 C123.238073,24.2287808 123.622834,24.2066078 124.131355,24.1622616 C124.637425,24.1179155 125.100608,24.0513964 125.520904,23.9627041 C125.69613,23.9405311 125.806411,23.9466903 125.850524,23.9799499 C125.895862,24.0119776 125.928946,24.0846559 125.949777,24.1955212 L126.214454,25.4593854 C126.237735,25.5714825 126.242637,25.665102 126.231608,25.7427077 C126.22058,25.8203134 126.138482,25.8917599 125.984087,25.9582791 C125.36651,26.1356635 124.725651,26.2514561 124.063961,26.3081206 C123.40227,26.3623214 122.918256,26.3906537 122.609468,26.3906537 C121.770101,26.3906537 121.066749,26.3019614 120.498186,26.124577 C119.927172,25.9471926 119.46889,25.6749567 119.122115,25.3103332 C118.77289,24.9444777 118.522918,24.4837709 118.370975,23.9294446 C118.219031,23.3751182 118.141834,22.7210131 118.141834,21.9671292 L118.141834,10.5590924 L115.661721,10.5590924 Z" id="Fill-20"></path>
                <path d="M134.783954,6.13581436 C134.673672,6.09146825 134.602601,6.04712214 134.569517,6.00277603 C134.536432,5.95842992 134.56339,5.84756465 134.652841,5.67018021 L136.802108,0.714502431 C136.847446,0.603637157 136.906263,0.514944937 136.984686,0.448425772 C137.060658,0.381906608 137.188094,0.359733553 137.364545,0.381906608 L139.316531,0.880800343 C139.648601,0.947319508 139.713545,1.10253089 139.515038,1.3464345 L136.174728,6.23559311 C136.019108,6.45732366 135.821827,6.52384282 135.577982,6.4351506 L134.783954,6.13581436 Z M128.696404,8.99613844 C128.696404,8.818754 128.730714,8.70172955 128.795658,8.64752875 C128.861827,8.59209611 128.983137,8.56376387 129.159587,8.56376387 L130.64839,8.56376387 C130.826066,8.56376387 130.946151,8.59209611 131.01232,8.64752875 C131.079714,8.70172955 131.111573,8.818754 131.111573,8.99613844 L131.111573,18.0427449 C131.111573,19.1292245 131.178968,20.0604928 131.31008,20.8365498 C131.442418,21.6126067 131.707094,22.2506979 132.104108,22.7483598 C132.502348,23.2472536 133.058658,23.6192682 133.775489,23.8631718 C134.49232,24.1070754 135.434615,24.2290272 136.603601,24.2290272 C136.868277,24.2290272 137.325334,24.2117815 137.975996,24.1785219 C138.627883,24.1452623 139.338587,24.0516427 140.111785,23.8964314 L140.111785,8.99613844 C140.111785,8.818754 140.143644,8.70172955 140.208587,8.64752875 C140.273531,8.59209611 140.393615,8.56376387 140.568841,8.56376387 L142.068672,8.56376387 C142.220615,8.56376387 142.335799,8.59209611 142.412996,8.64752875 C142.487742,8.70172955 142.525728,8.818754 142.525728,8.99613844 L142.525728,23.8964314 C142.525728,25.1381224 141.920404,25.8698332 140.710982,26.0915638 C140.402193,26.1359099 140.056644,26.1790242 139.670658,26.2246021 C139.285897,26.2689482 138.89501,26.3022078 138.499221,26.3243809 C138.103432,26.3465539 137.722348,26.3625678 137.360869,26.3736543 C136.998165,26.3847408 136.684475,26.3909 136.419799,26.3909 C134.989813,26.3909 133.785292,26.2467752 132.806235,25.9585255 C131.827179,25.6702757 131.034376,25.2046416 130.429052,24.561623 C129.823728,23.9186044 129.385052,23.0809557 129.109348,22.0499086 C128.834869,21.0200934 128.696404,19.7500701 128.696404,18.2423023 L128.696404,8.99613844 Z" id="Fill-22"></path>
                <path d="M157.182532,12.2883444 C157.072251,12.3992096 156.984025,12.4497149 156.917856,12.4386284 C156.851687,12.4275419 156.77449,12.3881231 156.68749,12.3216039 C156.068687,11.7463364 155.357983,11.2794704 154.552927,10.9247015 C153.746645,10.5699326 152.848462,10.3925482 151.855927,10.3925482 C151.547138,10.3925482 151.199138,10.4048665 150.814377,10.4258078 C150.427166,10.4479808 150.014223,10.5157318 149.573096,10.6265971 L149.573096,25.6242051 C149.573096,25.8028213 149.540011,25.918614 149.472617,25.9752784 C149.405223,26.0307111 149.282687,26.0578115 149.103786,26.0578115 L147.595377,26.0578115 C147.437307,26.0578115 147.3258,26.0307111 147.258406,25.9752784 C147.192237,25.9198458 147.157927,25.8040532 147.157927,25.6254369 L147.157927,10.6253652 C147.157927,9.93800054 147.275561,9.42802028 147.509603,9.09542446 C147.74487,8.76282863 148.221532,8.54109808 148.937138,8.43023281 C149.934575,8.29719448 150.852363,8.23067531 151.69173,8.23067531 C154.271096,8.23067531 156.432617,8.98455918 158.176293,10.4923269 C158.329462,10.6475383 158.34049,10.8027497 158.208152,10.9579611 L157.182532,12.2883444 Z" id="Fill-24"></path>
                <path d="M171.111355,17.2108857 L166.843454,17.2108857 C166.445214,17.2108857 165.972228,17.2441453 165.419594,17.3118963 C164.868186,17.3784155 164.346186,17.5397861 163.848693,17.796008 C163.352425,18.05223 162.933355,18.4316356 162.591482,18.9317612 C162.249608,19.4331186 162.079285,20.1180196 162.079285,20.9864643 C162.079285,21.6541196 162.205496,22.2121415 162.459144,22.6568344 C162.712792,23.1027592 163.054665,23.4599917 163.484763,23.7273002 C163.914862,23.9933769 164.405003,24.1781523 164.957637,24.2779311 C165.509045,24.3789417 166.08251,24.4282151 166.678031,24.4282151 C166.876538,24.4282151 167.146115,24.4171286 167.487989,24.3949555 C167.829862,24.3727825 168.210946,24.3395229 168.630017,24.293945 C169.047862,24.2495988 169.473059,24.1781523 169.904383,24.0771417 C170.333256,23.977363 170.735172,23.8603385 171.111355,23.7273002 L171.111355,17.2108857 Z M173.591468,24.5279939 C173.591468,24.9271089 173.437073,25.1931855 173.128285,25.3262238 C172.136975,25.7475119 171.07827,26.0369934 169.953397,26.190973 C168.828524,26.3461844 167.747763,26.4237901 166.711115,26.4237901 C165.29951,26.4237901 164.141552,26.2685787 163.236017,25.9569241 C162.331707,25.6465013 161.616101,25.2399953 161.085524,24.7398697 C160.557397,24.2397442 160.187341,23.660781 159.977806,23.0054441 C159.76827,22.3488753 159.664115,21.6652061 159.664115,20.9532047 C159.664115,20.130338 159.806256,19.3579766 160.094214,18.6348886 C160.379721,17.9130325 160.815946,17.2847959 161.400439,16.7501789 C161.984932,16.2167938 162.717693,15.8004331 163.601172,15.499865 C164.483425,15.1992969 165.529876,15.0490129 166.7442,15.0490129 L171.143214,15.0490129 L171.143214,14.1633225 C171.143214,13.617619 171.088073,13.1088706 170.979017,12.6395409 C170.868735,12.1702113 170.6592,11.7698644 170.350411,11.442196 C170.040397,11.1145275 169.610299,10.8583055 169.060115,10.6722982 C168.508707,10.4862909 167.790651,10.3926714 166.908397,10.3926714 C166.181763,10.3926714 165.381608,10.4653497 164.510383,10.6094746 C163.639158,10.7535994 162.895369,10.9248247 162.277792,11.1243822 C162.123397,11.1687283 162.000862,11.185974 161.913862,11.1748875 C161.825637,11.1638009 161.758242,11.0800361 161.715355,10.9248247 L161.38451,9.71762501 C161.318341,9.4700259 161.405341,9.30126432 161.647961,9.21010842 C162.0462,9.05243337 162.476299,8.91200402 162.939482,8.78882038 C163.402665,8.66563674 163.883003,8.55846698 164.378045,8.46731108 C164.874313,8.37738703 165.375482,8.31579521 165.882777,8.28130379 C166.390073,8.24804421 166.864285,8.2307985 167.306637,8.2307985 C169.446101,8.2307985 171.029256,8.70751918 172.054876,9.66096054 C173.07927,10.6156337 173.591468,12.0113044 173.591468,13.8516679 L173.591468,24.5279939 Z" id="Fill-26"></path>
            </g>
        </g>
    </g>
</svg>