<?xml version="1.0" encoding="UTF-8" standalone="no"?>
<svg width="171px" height="42px" viewBox="0 0 171 42" version="1.1" xmlns="http://www.w3.org/2000/svg" xmlns:xlink="http://www.w3.org/1999/xlink">
    <!-- Generator: Sketch 3.6.1 (26313) - http://www.bohemiancoding.com/sketch -->
    <title>aquasenso-brand</title>
    <desc>Created with Sketch.</desc>
    <defs>
        <path id="path-1" d="M6.36773632,6.35798182 L6.36773632,0.370739394 L0.408523243,0.370739394 L0.408523243,6.35798182 L6.36773632,6.35798182 L6.36773632,6.35798182 Z"></path>
    </defs>
    <g id="Page-1" stroke="none" stroke-width="1" fill="none" fill-rule="evenodd">
        <g id="aquasenso-brand">
            <g id="Page-1">
                <path d="M12.9577153,24.1854444 C12.9577153,25.5239495 13.016952,26.8334646 13.1938219,27.6190909 L9.15018124,27.6190909 L8.88466634,26.193202 L8.79560121,26.193202 C7.85117479,27.3283636 6.37529845,27.9392222 4.66373563,27.9392222 C1.74139124,27.9392222 0,25.8440808 0,23.5745859 C0,19.879202 3.36472918,18.133596 8.47126972,18.133596 L8.47126972,17.9588283 C8.47126972,17.2021919 8.0578731,16.1258384 5.84426865,16.1258384 C4.36839231,16.1258384 2.80387096,16.6203232 1.85944454,17.173202 L1.03307143,14.3508283 C2.03631444,13.7979495 4.0142324,13.0707172 6.64123347,13.0707172 C11.4524307,13.0707172 12.9577153,15.8636869 12.9577153,19.2099495 L12.9577153,24.1854444 Z M8.61873132,20.8975758 C6.25724515,20.8975758 4.4272089,21.4504545 4.4272089,23.1380808 C4.4272089,24.2732424 5.19476543,24.8257071 6.19842856,24.8257071 C7.29031658,24.8257071 8.23516312,24.0980606 8.53008631,23.1960606 C8.58932302,22.9637273 8.61873132,22.7015758 8.61873132,22.4398384 L8.61873132,20.8975758 Z" id="Fill-1" fill="#004D9D"></path>
                <path d="M26.0326017,25.814801 L25.973365,25.814801 C25.0583469,27.1827101 23.612299,27.9389323 21.6637893,27.9389323 C18.5351667,27.9389323 15.7014673,25.2039424 15.7014673,20.6939424 C15.7014673,15.6020737 18.9779716,13.0704273 22.0771859,13.0704273 C23.9366305,13.0704273 25.2944535,13.7396798 26.1212467,15.0491949 L26.1800633,15.0491949 L26.2981166,13.3905586 L30.6076923,13.3905586 C30.578284,14.7580535 30.5190473,16.1835283 30.5190473,17.6678111 L30.5190473,33.3799222 L26.0326017,33.3799222 L26.0326017,25.814801 Z M26.0326017,19.3554374 C26.0326017,19.1226899 26.0027733,18.8609525 25.9439567,18.6571949 C25.7078501,17.4930434 24.7335953,16.5330636 23.3463639,16.5330636 C21.3100495,16.5330636 20.2471497,18.2206899 20.2471497,20.5195889 C20.2471497,22.9054576 21.4276827,24.4473061 23.3169556,24.4473061 C24.5861337,24.4473061 25.6192051,23.6037 25.9145484,22.4395485 C26.0027733,22.1488212 26.0326017,21.770296 26.0326017,21.4795687 L26.0326017,19.3554374 Z" id="Fill-3" fill="#004D9D"></path>
                <path d="M47.6960969,23.050904 C47.6960969,24.913298 47.7553336,26.4261566 47.8141502,27.6188838 L43.9179711,27.6188838 L43.7112728,25.6111263 L43.6226278,25.6111263 C43.0617696,26.4841364 41.7043667,27.9390152 39.1063538,27.9390152 C36.1546011,27.9390152 34.0296417,26.1354293 34.0296417,21.741803 L34.0296417,13.3906414 L38.5160873,13.3906414 L38.5160873,21.0431465 C38.5160873,23.1088838 39.1949988,24.3604192 40.7889284,24.3604192 C42.0286982,24.3604192 42.7664263,23.516399 43.0323613,22.8181566 C43.1504146,22.5560051 43.2092312,22.2358737 43.2092312,21.8581768 L43.2092312,13.3906414 L47.6960969,13.3906414 L47.6960969,23.050904 Z" id="Fill-5" fill="#004D9D"></path>
                <path d="M63.3087932,24.1854444 C63.3087932,25.5239495 63.3680299,26.8334646 63.5448998,27.6190909 L59.5012591,27.6190909 L59.2357442,26.193202 L59.1470992,26.193202 C58.2022527,27.3283636 56.7267965,27.9392222 55.0148135,27.9392222 C52.0924691,27.9392222 50.3510779,25.8440808 50.3510779,23.5745859 C50.3510779,19.879202 53.7158071,18.133596 58.8223476,18.133596 L58.8223476,17.9588283 C58.8223476,17.2021919 58.408951,16.1258384 56.1953465,16.1258384 C54.7194702,16.1258384 53.1549489,16.6203232 52.2105224,17.173202 L51.3841493,14.3508283 C52.3873923,13.7979495 54.3653103,13.0707172 56.9923114,13.0707172 C61.8035086,13.0707172 63.3087932,15.8636869 63.3087932,19.2099495 L63.3087932,24.1854444 Z M58.9698092,20.8975758 C56.608323,20.8975758 54.7782868,21.4504545 54.7782868,23.1380808 C54.7782868,24.2732424 55.5458433,24.8257071 56.5495065,24.8257071 C57.6413945,24.8257071 58.586241,24.0980606 58.8811642,23.1960606 C58.9404009,22.9637273 58.9698092,22.7015758 58.9698092,22.4398384 L58.9698092,20.8975758 Z" id="Fill-7" fill="#004D9D"></path>
                <path d="M90.6972014,23.7782192 C91.5239947,24.2731182 93.2355575,24.8255828 94.5639722,24.8255828 C95.9217953,24.8255828 96.4826535,24.3890778 96.4826535,23.6618455 C96.4826535,22.9052091 96.0398486,22.5560879 94.3871023,22.0032091 C91.3761129,21.0432293 90.2249882,19.4135828 90.2543965,17.7549465 C90.2543965,15.0779364 92.556646,13.0705929 96.1280735,13.0705929 C97.8106481,13.0705929 99.2869446,13.4776939 100.172134,13.914199 L99.4049979,16.9403303 C98.7554946,16.620199 97.4863166,16.1551182 96.2759552,16.1551182 C95.1840672,16.1551182 94.5639722,16.5912091 94.5639722,17.2894515 C94.5639722,17.9881081 95.1248304,18.3372293 96.89563,18.9480879 C99.6411045,19.8500879 100.762401,21.2465727 100.791809,23.3127242 C100.791809,25.9897343 98.6962579,27.939098 94.5639722,27.939098 C92.6746993,27.939098 90.9921246,27.5025929 89.9002366,26.9207242 L90.6972014,23.7782192 Z" id="Fill-9" fill="#004D9D"></path>
                <path d="M106.989271,21.8867939 C107.136733,23.7491879 108.966769,24.6217838 111.06232,24.6217838 C112.597433,24.6217838 113.837203,24.4184404 115.047144,24.0109253 L115.637831,27.0080667 C114.161955,27.6189253 112.360907,27.9100667 110.413237,27.9100667 C105.513395,27.9100667 102.709104,25.1166828 102.709104,20.6356727 C102.709104,17.0276727 105.011774,13.0415616 110.000261,13.0415616 C114.663576,13.0415616 116.434796,16.6201576 116.434796,20.1411879 C116.434796,20.8974101 116.346151,21.5666626 116.286914,21.916198 L106.989271,21.8867939 Z M112.272682,18.8606626 C112.272682,17.8137131 111.800469,15.9798949 109.763734,15.9798949 C107.845053,15.9798949 107.077916,17.6969253 106.959863,18.8606626 L112.272682,18.8606626 Z" id="Fill-11" fill="#004D9D"></path>
                <path d="M119.119269,17.9295485 C119.119269,16.1549525 119.060032,14.6706697 119.001216,13.3905586 L122.897395,13.3905586 L123.104093,15.3693263 L123.192318,15.3693263 C123.783005,14.4379222 125.229473,13.0704273 127.649776,13.0704273 C130.601108,13.0704273 132.815133,15.0202051 132.815133,19.2100737 L132.815133,27.6192152 L128.328687,27.6192152 L128.328687,19.7335485 C128.328687,17.9005586 127.679184,16.6494374 126.055426,16.6494374 C124.816076,16.6494374 124.077928,17.4930434 123.753176,18.3080737 C123.635123,18.598801 123.605715,19.0063162 123.605715,19.4138313 L123.605715,27.6192152 L119.119269,27.6192152 L119.119269,17.9295485 Z" id="Fill-13" fill="#004D9D"></path>
                <path d="M136.3853,23.7782192 C137.212093,24.2731182 138.923656,24.8255828 140.252071,24.8255828 C141.609894,24.8255828 142.170752,24.3890778 142.170752,23.6618455 C142.170752,22.9052091 141.727947,22.5560879 140.075201,22.0032091 C137.064211,21.0432293 135.913087,19.4135828 135.942495,17.7549465 C135.942495,15.0779364 138.244744,13.0705929 141.816172,13.0705929 C143.498747,13.0705929 144.975043,13.4776939 145.860233,13.914199 L145.093096,16.9403303 C144.443593,16.620199 143.174415,16.1551182 141.964054,16.1551182 C140.872166,16.1551182 140.252071,16.5912091 140.252071,17.2894515 C140.252071,17.9881081 140.812929,18.3372293 142.583728,18.9480879 C145.329203,19.8500879 146.450499,21.2465727 146.479908,23.3127242 C146.479908,25.9897343 144.384356,27.939098 140.252071,27.939098 C138.362798,27.939098 136.680223,27.5025929 135.588335,26.9207242 L136.3853,23.7782192 Z" id="Fill-15" fill="#004D9D"></path>
                <path d="M155.865061,27.939098 C151.64413,27.939098 148.397034,25.2041081 148.397034,20.6067242 C148.397034,16.0093404 151.46726,13.0705929 156.130996,13.0705929 C160.528797,13.0705929 163.480129,16.0673202 163.480129,20.3739768 C163.480129,25.5532293 159.731832,27.939098 155.894469,27.939098 L155.865061,27.939098 Z M155.953706,24.767603 C157.724506,24.767603 158.816394,23.0509869 158.816394,20.4903505 C158.816394,18.3952091 157.990441,16.2420879 155.953706,16.2420879 C153.828327,16.2420879 153.001953,18.3952091 153.001953,20.5193404 C153.001953,22.9346131 154.035025,24.767603 155.923878,24.767603 L155.953706,24.767603 Z" id="Fill-17" fill="#004D9D"></path>
                <path d="M70.3131351,27.659304 C69.9854427,27.659304 69.6522887,27.5826879 69.3426614,27.4186879 C68.3377379,26.8898293 67.9579507,25.6569303 68.4948622,24.666304 C69.1094956,23.5307283 69.4220638,22.297001 69.4220638,20.9982535 C69.4220638,19.4340414 68.954892,17.9249101 68.0705425,16.636102 C67.4336428,15.704698 67.6810926,14.4403242 68.6263593,13.8120717 C69.5699455,13.1829909 70.8529874,13.4285768 71.4903072,14.3583242 C72.8363669,16.3234253 73.5488879,18.618597 73.5488879,20.9982535 C73.5488879,22.944304 73.0590297,24.8758596 72.1343489,26.5829505 C71.7633842,27.269597 71.050023,27.659304 70.3131351,27.659304" id="Fill-19" fill="#E53312"></path>
                <path d="M74.8615062,32.9992848 C74.4287841,32.9992848 73.9927011,32.865103 73.6213164,32.5880424 C72.7113397,31.9125778 72.5294283,30.6370222 73.2154819,29.7404061 C75.1778555,27.1756283 76.214708,24.1163657 76.214708,20.8947596 C76.214708,17.4851333 75.0047666,14.1624768 72.8062864,11.5380626 C72.0811619,10.6720929 72.205517,9.38949697 73.0844049,8.67468889 C73.9628727,7.95988081 75.2635596,8.08246667 75.9891043,8.94760808 C78.795496,12.2996687 80.3406919,16.5421333 80.3406919,20.8947596 C80.3406919,25.007598 79.0164783,28.9133657 76.5096311,32.1896384 C76.1054771,32.7197394 75.4870627,32.9992848 74.8615062,32.9992848" id="Fill-21" fill="#E53312"></path>
                <g id="Group-25" transform="translate(76.041451, 0.226949)" fill="#E53312">
                    <path d="M2.77038752,40.5858586 C2.32464177,40.5858586 1.87511496,40.4438081 1.49784854,40.1501818 C0.602155866,39.4589798 0.445871779,38.1792828 1.14788982,37.2955051 C4.95416356,32.5121717 6.96653124,26.761404 6.96653124,20.6677273 C6.96653124,14.4179192 4.7487256,8.32631313 0.720629287,3.51523232 C-0.00533550513,2.64926263 0.119859812,1.36749495 0.998747744,0.652686869 C1.87763568,-0.0625353535 3.17748236,0.0600505051 3.90302703,0.926434343 C8.53903484,6.46557576 11.0925152,13.4753333 11.0925152,20.6677273 C11.0925152,27.680798 8.7764018,34.2996061 4.39456569,39.8060303 C3.98747085,40.3174949 3.38250019,40.5858586 2.77038752,40.5858586" id="Fill-23"></path>
                </g>
                <g id="Group-28" transform="translate(164.266339, 11.822909)">
                    <mask id="mask-2" fill="white">
                        <use xlink:href="#path-1"></use>
                    </mask>
                    <g id="Clip-27"></g>
                    <path d="M3.39640612,6.35798182 C1.65081369,6.35798182 0.408523243,5.06917374 0.408523243,3.36456768 C0.408523243,1.57174949 1.78861256,0.370739394 3.39640612,0.370739394 C4.98781505,0.370739394 6.36790437,1.57174949 6.36790437,3.36456768 C6.36790437,5.15738586 4.98781505,6.35798182 3.39640612,6.35798182 L3.39640612,6.35798182 Z M3.39640612,0.89090101 C2.0730328,0.89090101 1.05802647,1.90761818 1.05802647,3.36456768 C1.05802647,4.72460808 1.95119843,5.83740606 3.39640612,5.83740606 C4.69541256,5.83740606 5.71798103,4.82897172 5.71798103,3.36456768 C5.71798103,1.90761818 4.69541256,0.89090101 3.39640612,0.89090101 L3.39640612,0.89090101 Z M2.79563664,5.07745657 L2.24360091,5.07745657 L2.24360091,1.76349697 L3.51824049,1.76349697 C4.32990946,1.76349697 4.74372619,2.04387071 4.74372619,2.71602222 C4.74372619,3.31611313 4.3626787,3.56459798 3.86735897,3.62050707 L4.80926468,5.07745657 L4.18370821,5.07745657 L3.31532324,3.66026465 L2.79563664,3.66026465 L2.79563664,5.07745657 Z M3.41237062,3.19601212 C3.82618736,3.19601212 4.19169046,3.1558404 4.19169046,2.67585051 C4.19169046,2.26792121 3.78585598,2.22774949 3.46110437,2.22774949 L2.79563664,2.22774949 L2.79563664,3.19601212 L3.41237062,3.19601212 Z" id="Fill-26" fill="#004D9D" mask="url(#mask-2)"></path>
                </g>
            </g>
        </g>
    </g>
</svg>