<?xml version="1.0" encoding="UTF-8" standalone="no"?>
<svg width="45px" height="45px" viewBox="0 0 45 45" version="1.1" xmlns="http://www.w3.org/2000/svg" xmlns:xlink="http://www.w3.org/1999/xlink">
    <!-- Generator: Sketch 3.6.1 (26313) - http://www.bohemiancoding.com/sketch -->
    <title>aquasenso-section-3-icons-06</title>
    <desc>Created with Sketch.</desc>
    <defs></defs>
    <g id="Page-1" stroke="none" stroke-width="1" fill="none" fill-rule="evenodd">
        <g id="aquasenso-section-3-icons-06">
            <g id="Page-1" transform="translate(1.000000, 1.000000)">
                <path d="M42.9604464,21.4801588 C42.9604464,33.3433273 33.343424,42.9603498 21.4802554,42.9603498 C9.61708689,42.9603498 6.44194757e-05,33.3433273 6.44194757e-05,21.4801588 C6.44194757e-05,9.61699026 9.61708689,-3.22097379e-05 21.4802554,-3.22097379e-05 C33.343424,-3.22097379e-05 42.9604464,9.61699026 42.9604464,21.4801588 L42.9604464,21.4801588 Z" id="Stroke-1" stroke="#0D56A5" stroke-width="2"></path>
                <path d="M33.9383378,29.8313869 C33.9383378,29.421679 37.3694801,29.0475629 36.0838285,28.7141921 C35.7540007,28.6285142 31.5466037,28.7188625 31.1468809,28.6404318 C30.6237948,28.5378438 32.4566899,28.6752184 33.254364,28.1807989 C34.0038846,27.7163345 29.8425476,27.6333944 28.6222816,27.5351547 C27.5957573,27.4525367 26.863791,27.6303345 25.9768959,27.7582071 L25.9768959,28.2250873 C25.9768959,28.492267 25.7581918,28.4866303 25.491012,28.4866303 C25.2236712,28.4866303 25.004967,28.492267 25.004967,28.2250873 L25.004967,27.8582184 C24.7712854,27.8712633 24.5237536,27.8775442 24.253997,27.8715854 C23.4741993,27.8543532 23.0783416,27.5351547 22.2656899,27.5351547 C21.601203,27.5351547 20.2570906,27.8277801 19.5475101,27.867076 L19.5475101,28.2250873 C19.5475101,28.492267 19.328806,28.4866303 19.0616262,28.4866303 C18.7942854,28.4866303 18.5755813,28.492267 18.5755813,28.2250873 L18.5755813,27.8712633 C17.1272704,27.8451734 16.1339221,27.7018401 14.7300607,27.8126416 C12.2186674,28.0108925 15.4813528,28.2455404 14.0208022,28.6019412 C13.3250719,28.7718476 7.4102367,29.0155142 7.03064494,29.2099 C6.63865243,29.4107277 6.42896704,29.6228288 6.42896704,29.8420161 C6.42896704,30.1618588 6.87619925,30.4665629 7.68450262,30.7435667 C8.30454007,30.9561509 8.11981723,31.0107464 9.1371618,31.1521472 C14.0208022,31.8314506 14.3978172,30.6512858 16.6202891,30.7165105 C20.5510045,30.8318213 13.629615,32.2350386 18.1014539,32.8694094 C22.2043303,33.4514393 20.8020794,32.1785105 22.2656899,32.1487165 C25.5641281,32.0812371 21.9068734,30.4320985 25.4502667,30.255106 C33.9383378,29.8313869 22.2845326,32.031312 29.0305401,31.9282408 C30.1931506,31.9105255 29.4420195,31.1376528 32.7552742,31.5702296 C34.193439,31.7578513 35.3996936,31.1618101 36.2997948,30.9118625 C37.4511318,30.5920199 33.9383378,30.2175816 33.9383378,29.8313869" id="Fill-3" fill="#0D56A5"></path>
                <path d="M21.4802232,19.7718509 C21.4802232,19.3347648 21.8379124,18.9770757 22.2748375,18.9770757 C22.7119236,18.9770757 23.0696127,19.3347648 23.0696127,19.7718509 L23.0696127,24.5400195 C23.0696127,24.9771056 22.7119236,25.3346337 22.2748375,25.3346337 C21.8379124,25.3346337 21.4802232,24.9771056 21.4802232,24.5400195 L21.4802232,19.7718509 Z M19.4436015,27.4102292 C19.4759723,27.409585 19.5117251,27.4076524 19.5474779,27.4057199 L19.5474779,26.9414165 C19.5474779,26.9340082 19.5457064,26.9270831 19.5453843,26.9196749 L25.0071895,26.9196749 C25.0068674,26.9270831 25.0050959,26.9340082 25.0050959,26.9414165 L25.0050959,27.3968622 C25.3581146,27.3770532 25.676991,27.340173 25.9768637,27.2968509 L25.9768637,26.9414165 C25.9768637,26.9340082 25.9750921,26.9270831 25.97477,26.9196749 L27.043006,26.9196749 L27.043006,17.5208734 C27.043006,17.430364 27.0236801,17.340821 26.9863169,17.258203 L24.6693094,12.1513491 C24.5662382,11.9241094 24.3398037,11.7781993 24.0903393,11.7781993 L23.252403,11.7781993 L23.252403,9.94369363 C23.252403,9.57553633 22.9700846,9.27018801 22.6112682,9.23314682 L22.6112682,5.70956255 L21.9384067,5.70956255 L21.9384067,9.23314682 C21.5797513,9.27018801 21.297433,9.57569738 21.297433,9.94369363 L21.297433,11.7781993 L20.4594966,11.7781993 C20.2100322,11.7781993 19.9835978,11.9241094 19.8805266,12.1513491 L17.5635191,17.258203 C17.5261558,17.340821 17.50683,17.430364 17.50683,17.5208734 L17.50683,26.9196749 L18.5778037,26.9196749 C18.5774816,26.9270831 18.5757101,26.9340082 18.5757101,26.9414165 L18.5757101,27.4099071 C18.8475603,27.4148996 19.1337438,27.416027 19.4436015,27.4102292 L19.4436015,27.4102292 Z" id="Fill-5" fill="#0D56A5"></path>
            </g>
        </g>
    </g>
</svg>