<?xml version="1.0" encoding="UTF-8" standalone="no"?>
<svg width="85px" height="25px" viewBox="0 0 85 25" version="1.1" xmlns="http://www.w3.org/2000/svg" xmlns:xlink="http://www.w3.org/1999/xlink">
    <!-- Generator: Sketch 3.6.1 (26313) - http://www.bohemiancoding.com/sketch -->
    <title>aquasenso-kekelit-brand-blue</title>
    <desc>Created with Sketch.</desc>
    <defs>
        <path id="path-1" d="M21.3674845,0.429589286 L0.000197674419,0.429589286 L0.000197674419,25.3846913 L21.3674845,25.3846913 L21.3674845,0.429589286 L21.3674845,0.429589286 Z"></path>
    </defs>
    <g id="Page-1" stroke="none" stroke-width="1" fill="none" fill-rule="evenodd">
        <g id="aquasenso-kekelit-brand-blue">
            <g id="Page-1" transform="translate(0.000000, -1.000000)">
                <g id="Group-3" transform="translate(0.000000, 0.221564)">
                    <mask id="mask-2" fill="white">
                        <use xlink:href="#path-1"></use>
                    </mask>
                    <g id="Clip-2"></g>
                    <path d="M16.2345388,12.9070752 C16.2345388,10.4994225 14.5872519,8.88781179 14.5872519,8.88781179 L21.3674845,8.88781179 L12.7350426,0.429459107 L0.000197674419,12.9070752 L12.7350426,25.3846913 L21.3674845,16.9269895 L14.5872519,16.9269895 C14.5872519,16.9269895 16.2345388,15.3153788 16.2345388,12.9070752 M9.53074031,16.9269895 C7.26473256,16.9269895 5.42767829,15.1272707 5.42767829,12.9070752 C5.42767829,10.6868796 7.26473256,8.88781179 9.53074031,8.88781179 C11.7967481,8.88781179 13.6331434,10.6868796 13.6331434,12.9070752 C13.6331434,15.1272707 11.7967481,16.9269895 9.53074031,16.9269895" id="Fill-1" fill="#0D57A5" mask="url(#mask-2)"></path>
                </g>
                <path d="M82.6936667,7.63464777 C83.7696744,7.63464777 84.6466899,6.76765848 84.6466899,5.69303438 C84.6466899,4.62882455 83.7696744,3.76118438 82.6936667,3.76118438 C81.6071163,3.76118438 80.7307597,4.62882455 80.7307597,5.69303438 C80.7307597,6.76765848 81.6071163,7.63464777 82.6936667,7.63464777 M82.6936667,7.27014777 C81.8113798,7.27014777 81.099093,6.57043795 81.099093,5.69303437 C81.099093,4.82604509 81.8113798,4.12568437 82.6936667,4.12568437 C83.5700233,4.12568437 84.2776977,4.82604509 84.2776977,5.69303437 C84.2776977,6.57043795 83.5700233,7.27014777 82.6936667,7.27014777" id="Fill-4" fill="#0D57A5"></path>
                <path d="M82.5134535,5.02808223 C82.7163992,5.0222242 82.8046938,5.03328938 82.8046938,5.28778848 C82.8046938,5.41861795 82.7763605,5.55270188 82.6557791,5.55270188 L82.5134535,5.55270188 L82.5134535,5.02808223 Z M82.5134535,5.93737955 L82.6505078,5.93737955 C82.7473682,5.94649205 82.7809729,6.03240991 82.7921744,6.16323937 C82.8046938,6.29471973 82.795469,6.47176259 82.8020581,6.65921973 C82.8046938,6.70217866 82.8139186,6.74253402 82.8257791,6.78223848 L83.2804302,6.78223848 L83.2804302,6.75425009 C83.2613217,6.73407241 83.2501202,6.7080367 83.2402364,6.6800483 C83.2165155,6.54270991 83.2145388,6.17430455 83.2020194,6.00377062 C83.1954302,5.85536705 83.112407,5.75838402 82.996438,5.72714116 L82.996438,5.72128312 C83.1710504,5.62430009 83.2165155,5.46157687 83.2165155,5.23311348 C83.2165155,4.80808045 83.0465155,4.64340455 82.7051977,4.64340455 L82.0963605,4.64340455 L82.0963605,6.78223848 L82.5134535,6.78223848 L82.5134535,5.93737955 Z" id="Fill-6" fill="#0D57A5"></path>
                <path d="M52.6871512,17.4419759 L52.6871512,7.09668482 L50.5904845,12.2328804 L52.6871512,17.4419759 Z M61.1812209,20.9379214 L50.2577326,20.9379214 L47.7920736,14.6177518 L47.7920736,20.9379214 L44.3024612,20.9379214 L44.3024612,3.77062232 L47.7920736,3.77062232 L47.7907558,10.327717 L50.3559109,3.77062232 L61.1324612,3.77062232 L61.1324612,7.26461518 L56.1148256,7.26461518 L56.1148256,10.6785482 L61.0099031,10.6785482 L61.0099031,14.0827179 L56.1148256,14.0827179 L56.1148256,17.508367 L61.1812209,17.508367 L61.1812209,20.9379214 Z M68.4945155,20.9379214 L61.7399806,20.9379214 L61.7399806,3.77062232 L65.1887403,3.77062232 L65.1887403,17.5005563 L68.4945155,17.5005563 L68.4945155,20.9379214 Z M69.0690891,20.9379214 L72.5204845,20.9379214 L72.5204845,3.77062232 L69.0690891,3.77062232 L69.0690891,20.9379214 Z M73.127345,3.77062232 L80.043314,3.77062232 L80.043314,7.26721875 L78.3110271,7.26721875 L78.3110271,20.9379214 L74.8840116,20.9379214 L74.8840116,7.26721875 L73.127345,7.26721875 L73.127345,3.77062232 Z M32.1612984,7.09668482 L30.0646318,12.2328804 L32.1612984,17.4426268 L32.1612984,7.09668482 Z M27.2662209,20.9379214 L23.7766085,20.9379214 L23.7766085,3.77062232 L27.2662209,3.77062232 L27.2649031,10.327717 L29.8293992,3.77062232 L40.6217636,3.77062232 L40.6217636,7.26461518 L35.588314,7.26461518 L35.588314,10.6785482 L40.4998643,10.6785482 L40.4998643,14.0827179 L35.588314,14.0827179 L35.588314,17.508367 L40.6705233,17.508367 L40.6705233,20.9379214 L29.7318798,20.9379214 L27.2662209,14.6177518 L27.2662209,20.9379214 Z" id="Fill-8" fill="#0D57A5"></path>
            </g>
        </g>
    </g>
</svg>