<?xml version="1.0" encoding="UTF-8" standalone="no"?>
<svg width="45px" height="45px" viewBox="0 0 45 45" version="1.1" xmlns="http://www.w3.org/2000/svg" xmlns:xlink="http://www.w3.org/1999/xlink">
    <!-- Generator: Sketch 3.6.1 (26313) - http://www.bohemiancoding.com/sketch -->
    <title>aquasenso-icon-02</title>
    <desc>Created with Sketch.</desc>
    <defs></defs>
    <g id="Page-1" stroke="none" stroke-width="1" fill="none" fill-rule="evenodd">
        <g id="aquasenso-icon-02">
            <path d="M43.0063222,23.026233 C43.0063222,34.6131537 33.6132434,44.0062325 22.0263227,44.0062325 C10.4394019,44.0062325 1.04632313,34.6131537 1.04632313,23.026233 C1.04632313,11.4393123 10.4394019,2.04623345 22.0263227,2.04623345 C33.6132434,2.04623345 43.0063222,11.4393123 43.0063222,23.026233 L43.0063222,23.026233 Z" id="Stroke-3" stroke="#0D56A5" stroke-width="2"></path>
            <g id="Group" transform="translate(14.000000, 7.000000)">
                <path d="M2.48103559,29.3243466 C1.06349822,29.3050655 0.0670071174,28.080489 0.0611779359,26.5209587 C0.0486227758,23.159763 0.051911032,9.71512954 0.0583380783,6.35393381 C0.0628220641,4.03362064 1.01282918,3.0898911 3.31909253,3.08914377 C3.73983986,3.08899431 4.16073665,3.08914377 4.7043452,3.08914377 C4.7043452,2.5651153 4.69866548,2.1473573 4.70569039,1.72959929 C4.71719929,1.04579146 5.05110676,0.644923132 5.7525516,0.638795018 L10.2106797,0.638795018 C10.9121246,0.644923132 11.2461815,1.04579146 11.2576904,1.72959929 C11.2647153,2.1473573 11.2588861,2.5651153 11.2588861,3.08914377 C11.8024947,3.08914377 12.2233915,3.08899431 12.6442883,3.08914377 C14.9505516,3.0898911 15.9004093,4.03362064 15.9048932,6.35393381 C15.9114698,9.71512954 15.9146085,23.159763 15.9020534,26.5209587 C15.8962242,28.080489 14.8997331,29.3050655 13.4821957,29.3243466 L2.48103559,29.3243466 L2.48103559,29.3243466 Z" id="Stroke-1" stroke="#0D56A5" stroke-width="2"></path>
                <path d="M2.63879715,26.4567331 L13.3245836,26.4567331 L13.3245836,5.60380783 L2.63879715,5.60380783 L2.63879715,26.4567331 Z" id="Fill-5" fill="#0D56A5"></path>
            </g>
        </g>
    </g>
</svg>