<?xml version="1.0" encoding="UTF-8" standalone="no"?>
<svg width="45px" height="45px" viewBox="0 0 45 45" version="1.1" xmlns="http://www.w3.org/2000/svg" xmlns:xlink="http://www.w3.org/1999/xlink">
    <!-- Generator: Sketch 3.6.1 (26313) - http://www.bohemiancoding.com/sketch -->
    <title>aquasenso-section-3-icons-03</title>
    <desc>Created with Sketch.</desc>
    <defs></defs>
    <g id="Page-1" stroke="none" stroke-width="1" fill="none" fill-rule="evenodd">
        <g id="aquasenso-section-3-icons-03">
            <g id="Page-1" transform="translate(1.000000, 1.000000)">
                <path d="M10.0427547,17.9192596 L10.0427547,28.4917839 C10.0427547,29.7603644 11.0807135,30.7984843 12.3494551,30.7984843 L12.7842865,30.7984843 L12.7842865,15.6125592 L12.3494551,15.6125592 C11.0807135,15.6125592 10.0427547,16.650518 10.0427547,17.9192596" id="Fill-1" fill="#0D56A5"></path>
                <path d="M30.6109753,15.6125431 L29.9885221,15.6125431 L29.9885221,30.7984682 L30.6109753,30.7984682 C31.8797169,30.7984682 32.9176757,29.7603483 32.9176757,28.4917678 L32.9176757,17.9192434 C32.9176757,16.6505019 31.8797169,15.6125431 30.6109753,15.6125431" id="Fill-3" fill="#0D56A5"></path>
                <path d="M20.4866172,23.2862876 L17.0946097,23.2862876 L17.0946097,19.5098569 L18.5023363,18.7120217 L18.5023363,15.6124787 L17.7286584,15.6124787 L17.7286584,14.4741865 C17.7286584,14.0470854 18.0760404,13.6997034 18.5031416,13.6997034 L24.4572727,13.6997034 C24.8843738,13.6997034 25.2317558,14.0470854 25.2317558,14.4741865 L25.2317558,15.6124787 L19.0790517,15.6124787 L19.0790517,18.7121828 L20.4866172,19.5098569 L20.4866172,23.2862876 Z M26.7696097,14.0897633 C26.7696097,13.0266809 25.9047783,12.1618494 24.8416959,12.1618494 L18.1187184,12.1618494 C17.055636,12.1618494 16.1908045,13.0266809 16.1908045,14.0897633 L16.1908045,15.6124787 L14.1298644,15.6124787 L14.1298644,30.7984037 L28.6429281,30.7984037 L28.6429281,15.6124787 L26.7696097,15.6124787 L26.7696097,14.0897633 Z" id="Fill-5" fill="#0D56A5"></path>
                <path d="M42.9604464,21.4801588 C42.9604464,33.3433273 33.343424,42.9603498 21.4802554,42.9603498 C9.61708689,42.9603498 6.44194757e-05,33.3433273 6.44194757e-05,21.4801588 C6.44194757e-05,9.61699026 9.61708689,-3.22097379e-05 21.4802554,-3.22097379e-05 C33.343424,-3.22097379e-05 42.9604464,9.61699026 42.9604464,21.4801588 L42.9604464,21.4801588 Z" id="Stroke-7" stroke="#0D56A5" stroke-width="2"></path>
            </g>
        </g>
    </g>
</svg>