<?xml version="1.0" encoding="UTF-8" standalone="no"?>
<svg width="220px" height="75px" viewBox="0 0 220 75" version="1.1" xmlns="http://www.w3.org/2000/svg" xmlns:xlink="http://www.w3.org/1999/xlink">
    <!-- Generator: Sketch 3.6.1 (26313) - http://www.bohemiancoding.com/sketch -->
    <title>aquasenso-rolunk-logok-04</title>
    <desc>Created with Sketch.</desc>
    <defs></defs>
    <g id="Page-1" stroke="none" stroke-width="1" fill="none" fill-rule="evenodd">
        <g id="aquasenso-rolunk-logok-04" fill="#FF6500">
            <g id="Page-1" transform="translate(38.000000, 20.000000)">
                <path d="M89.3601822,1.74565254 L80.7228517,1.74565254 C82.6692924,3.21408475 82.7086144,5.31904237 82.7086144,7.58251695 L82.7086144,14.113661 L71.5288686,14.113661 L71.5288686,7.58251695 C71.5288686,5.31904237 71.5288686,3.21408475 73.5134025,1.74565254 L64.8773008,1.74565254 C66.8237415,3.21408475 66.8630636,5.31904237 66.8630636,8.64052542 L66.8630636,26.1216271 L66.8630636,26.1363729 C66.8630636,28.0434915 66.7438686,29.5524746 64.8773008,30.9029407 L73.5134025,30.9029407 C71.5288686,29.4332797 71.5288686,27.328322 71.5288686,25.0648475 L71.5288686,17.5764576 L82.7086144,17.5764576 L82.7086144,25.0648475 C82.7086144,27.328322 82.7086144,29.3939576 80.7228517,30.9029407 L89.3601822,30.9029407 C87.3731907,29.3939576 87.3731907,27.3676441 87.3731907,26.8429407 L87.3731907,9.36183898 C87.3731907,5.31904237 87.3731907,3.21408475 89.3601822,1.74565254" id="Fill-1"></path>
                <g id="Group-5" transform="translate(0.000000, 0.668229)">
                    <path d="M11.3983517,27.7523856 C6.41551271,27.7634449 4.81436864,20.9091229 4.7652161,15.6178517 C4.72343644,11.147428 6.34669915,3.58162288 11.3983517,3.56564831 C16.6933093,3.58162288 17.9897076,10.6743347 17.9921653,15.6178517 C17.9958517,21.0676398 16.4536907,27.7400975 11.3983517,27.7523856 M11.3983517,0.561199153 C3.37542797,0.561199153 -0.000122881356,7.74115678 -0.000122881356,15.6178517 C-0.000122881356,23.5387839 3.37542797,30.7199703 11.3983517,30.7199703 C19.4212754,30.7199703 22.7968263,23.5387839 22.7968263,15.6178517 C22.7968263,7.74115678 19.4212754,0.561199153 11.3983517,0.561199153" id="Fill-3"></path>
                </g>
                <path d="M104.440797,28.4206144 C99.4579576,28.4316737 97.8580424,21.5773517 97.807661,16.2860805 C97.7658814,11.8156568 99.3891441,4.24985169 104.440797,4.23387712 C109.736983,4.24985169 111.032153,11.3425636 111.03461,16.2860805 C111.038297,21.7358686 109.496136,28.4083263 104.440797,28.4206144 M104.440797,1.22942797 C96.4178729,1.22942797 93.042322,8.40938559 93.042322,16.2860805 C93.042322,24.2070127 96.4178729,31.3881992 104.440797,31.3881992 C112.46372,31.3881992 115.839271,24.2070127 115.839271,16.2860805 C115.839271,8.40938559 112.46372,1.22942797 104.440797,1.22942797" id="Fill-6"></path>
                <path d="M137.952508,30.9084703 L144.135898,30.9096992 C142.110814,29.9168178 141.849076,28.3980042 141.863822,25.5741907 L141.863822,8.09308898 C141.863822,5.70919068 141.86628,3.17046186 144.090432,1.74135169 L135.981492,1.74135169 C138.045898,3.36830085 138.086449,5.75588559 138.086449,8.1397839 L138.086449,23.8931737 L125.539034,1.74135169 L119.568229,1.74626695 C121.27628,3.0561822 121.632636,4.88219915 121.632636,6.94783475 L121.632636,25.7056737 C121.632636,27.7663941 121.318059,29.5567754 119.568229,30.9035551 L127.480559,30.9035551 C125.611534,29.4756737 125.414924,27.9679195 125.414924,25.7056737 L125.414924,9.92647881 L137.952508,30.9084703 Z" id="Fill-8"></path>
                <path d="M44.3203559,1.74577542 L42.9895508,5.22946186 C43.4528136,5.21963136 49.4752288,5.21717373 49.9470932,5.21717373 L49.9470932,26.1364958 C49.9470932,28.0436144 49.8291271,29.5525975 47.9625593,30.9030636 L56.5937458,30.9030636 C54.6092119,29.4334025 54.6092119,27.3284449 54.6092119,25.0637415 L54.6092119,5.21717373 C57.5866271,5.21717373 60.8196356,5.21717373 62.8447203,7.72026695 L62.0902288,1.74577542 L44.3203559,1.74577542 Z" id="Fill-10"></path>
                <path d="M23.1287288,7.72038983 C25.1931356,5.21729661 28.3008051,5.21729661 31.280678,5.21729661 L31.280678,26.1366186 C31.280678,28.0437373 31.1614831,29.5514915 29.2949153,30.9019576 L37.9273305,30.9019576 C35.9415678,29.4335254 35.9415678,27.3285678 35.9415678,25.0638644 L35.9415678,5.21729661 C36.2524576,5.21729661 41.0890678,5.21852542 41.3975,5.22221186 L42.7971186,1.74589831 L23.8819915,1.74589831 L23.1287288,7.72038983 Z" id="Fill-12"></path>
            </g>
        </g>
    </g>
</svg>