<?xml version="1.0" encoding="UTF-8" standalone="no"?>
<svg width="45px" height="45px" viewBox="0 0 45 45" version="1.1" xmlns="http://www.w3.org/2000/svg" xmlns:xlink="http://www.w3.org/1999/xlink">
    <!-- Generator: Sketch 3.6.1 (26313) - http://www.bohemiancoding.com/sketch -->
    <title>aquasenso-section-3-icons-07</title>
    <desc>Created with Sketch.</desc>
    <defs>
        <path id="path-1" d="M22.4575827,45 L0,45 L0,0.0847711268 L22.4575827,0.0847711268 L44.9151655,0.0847711268 L44.9151655,45 L22.4575827,45 L22.4575827,45 Z"></path>
    </defs>
    <g id="Page-1" stroke="none" stroke-width="1" fill="none" fill-rule="evenodd">
        <g id="aquasenso-section-3-icons-07"></g>
        <g>
            <g id="Group-3" transform="translate(0.000000, 0.073680)">
                <mask id="mask-2" fill="white">
                    <use xlink:href="#path-1"></use>
                </mask>
                <g id="Clip-2"></g>
                <path d="M22.4576303,45 C10.0743908,45 -6.33802817e-05,34.9255458 -6.33802817e-05,22.5423063 C-6.33802817e-05,10.1592254 10.0743908,0.0847711268 22.4576303,0.0847711268 C34.8407113,0.0847711268 44.9151655,10.1592254 44.9151655,22.5423063 C44.9151655,34.9255458 34.8407113,45 22.4576303,45" id="Fill-1" fill="#0D56A5" mask="url(#mask-2)"></path>
            </g>
            <path d="M28.8541109,23.4884789 L21.3376849,30.2484613 C21.128213,30.4577746 20.7888116,30.4577746 20.5794982,30.2484613 L16.2675792,26.686331 C16.0581074,26.4770176 16.0581074,26.1376162 16.2675792,25.9281444 L17.3816461,24.8140775 C17.5909595,24.6047641 17.9303609,24.6047641 18.1396743,24.8140775 L20.7233715,27.3977746 C20.855044,27.5294472 21.0686356,27.5294472 21.2003081,27.3977746 L26.9818574,21.6162254 C27.1911708,21.406912 27.5307306,21.406912 27.740044,21.6162254 L28.8541109,22.7302923 C29.0634243,22.9396056 29.0634243,23.2791655 28.8541109,23.4884789 L28.8541109,23.4884789 Z M14.9871391,18.0837254 C13.7388644,18.0837254 12.7176496,19.1049401 12.7176496,20.3532148 L12.7176496,30.7550282 C12.7176496,32.0033028 13.7388644,33.0245176 14.9871391,33.0245176 L29.9280898,33.0245176 C31.1763644,33.0245176 32.1975792,32.0033028 32.1975792,30.7550282 L32.1975792,20.3532148 C32.1975792,19.1049401 31.1763644,18.0837254 29.9280898,18.0837254 L29.2188644,18.0837254 L29.2188644,15.7998169 C29.2188644,12.0716303 26.1858011,9.0385669 22.4576144,9.0385669 C18.8582482,9.0385669 15.9075792,11.8659613 15.7079313,15.4162077 L18.3366285,15.4162077 C18.3453433,15.4162077 18.3537412,15.4173169 18.362456,15.4174754 C18.5560827,13.3279859 20.3183715,11.6862782 22.4576144,11.6862782 C24.7258363,11.6862782 26.5711532,13.5315951 26.5711532,15.7998169 L26.5711532,18.0837254 L14.9871391,18.0837254 Z" id="Fill-4" fill="#FEFEFE"></path>
        </g>
    </g>
</svg>