<?xml version="1.0" encoding="UTF-8" standalone="no"?>
<svg width="45px" height="45px" viewBox="0 0 45 45" version="1.1" xmlns="http://www.w3.org/2000/svg" xmlns:xlink="http://www.w3.org/1999/xlink">
    <!-- Generator: Sketch 3.6.1 (26313) - http://www.bohemiancoding.com/sketch -->
    <title>aquasenso-icon-03</title>
    <desc>Created with Sketch.</desc>
    <defs>
        <path id="path-1" d="M23.883451,31.8598687 L23.883451,0 L0,0 L0,15.9299343 L0,31.8598687 L23.883451,31.8598687 L23.883451,31.8598687 Z"></path>
    </defs>
    <g id="Page-1" stroke="none" stroke-width="1" fill="none" fill-rule="evenodd">
        <g id="aquasenso-icon-03">
            <path d="M43.0063222,23.026233 C43.0063222,34.6131537 33.6132434,44.0062325 22.0263227,44.0062325 C10.4394019,44.0062325 1.04632313,34.6131537 1.04632313,23.026233 C1.04632313,11.4393123 10.4394019,2.04623345 22.0263227,2.04623345 C33.6132434,2.04623345 43.0063222,11.4393123 43.0063222,23.026233 L43.0063222,23.026233 Z" id="Stroke-3" stroke="#0D56A5" stroke-width="2"></path>
            <g id="Page-1" transform="translate(7.000000, 12.000000)">
                <mask id="mask-2" fill="white">
                    <use xlink:href="#path-1"></use>
                </mask>
                <g id="Clip-2"></g>
                <path d="M0.894588235,12.3419383 C0.400470588,12.3419383 0,11.9354905 0,11.433998 C0,10.9325055 0.400470588,10.5260577 0.894588235,10.5260577 L5.34023529,10.5260577 L5.34023529,6.27785871 L0.894588235,6.27785871 C0.400470588,6.27785871 0,5.87141095 0,5.37007761 C0,4.86858507 0.400470588,4.46213731 0.894588235,4.46213731 L5.17192157,4.4616597 C5.17192157,4.4616597 5.6412549,2.25493333 7.968,2.25493333 C10.5504314,2.25493333 8.63105882,-3.1840796e-05 12.6672941,-3.1840796e-05 L21.3381961,-3.1840796e-05 C23.0876863,0.033878607 23.8660392,0.884505473 23.8712157,2.67873433 C23.8872157,8.12319204 23.8881569,13.567809 23.8707451,19.0122667 C23.865098,20.7999682 23.059451,21.6203463 21.3178039,21.681799 C20.5195294,21.7101373 19.7195294,21.681799 18.7896471,21.681799 L18.7896471,31.8598687 L15.1968627,31.8598687 L15.1968627,21.681799 C15.1968627,21.681799 13.6100392,21.6956498 12.899451,21.681799 C10.950902,21.6440677 10.0757647,20.8093612 10.0390588,18.8041871 C10.0164706,17.5668537 10.0390588,14.5932418 10.0390588,14.5932418 C10.0390588,14.5932418 8.71262745,14.5945154 7.968,14.5929234 C5.98415686,14.5889433 5.28094118,12.3419383 5.28094118,12.3419383 L0.894588235,12.3419383 Z" id="Fill-1" fill="#0D56A5" mask="url(#mask-2)"></path>
            </g>
        </g>
    </g>
</svg>