<?xml version="1.0" encoding="UTF-8" standalone="no"?>
<svg width="45px" height="45px" viewBox="0 0 45 45" version="1.1" xmlns="http://www.w3.org/2000/svg" xmlns:xlink="http://www.w3.org/1999/xlink">
    <!-- Generator: Sketch 3.6.1 (26313) - http://www.bohemiancoding.com/sketch -->
    <title>aquasenso-section-3-icons-09</title>
    <desc>Created with Sketch.</desc>
    <defs></defs>
    <g id="Page-1" stroke="none" stroke-width="1" fill="none" fill-rule="evenodd">
        <g id="aquasenso-section-3-icons-09">
            <g id="Page-1" transform="translate(1.000000, 1.000000)">
                <path d="M42.9604464,21.4801588 C42.9604464,33.3433273 33.343424,42.9603498 21.4802554,42.9603498 C9.61708689,42.9603498 6.44194757e-05,33.3433273 6.44194757e-05,21.4801588 C6.44194757e-05,9.61699026 9.61708689,-3.22097379e-05 21.4802554,-3.22097379e-05 C33.343424,-3.22097379e-05 42.9604464,9.61699026 42.9604464,21.4801588 L42.9604464,21.4801588 Z" id="Stroke-1" stroke="#0D56A5" stroke-width="2"></path>
                <path d="M18.8858899,12.5517644 C17.8068637,13.0176783 16.7745416,11.9853562 17.2404554,10.90633 C17.3502906,10.6521951 17.5572382,10.4450865 17.811373,10.3354124 C18.8903993,9.8694985 19.9227213,10.9018206 19.4568075,11.9806858 C19.3471333,12.2349816 19.1401858,12.4419292 18.8858899,12.5517644 M15.3914554,12.5517644 C14.3124292,13.0176783 13.2799461,11.9853562 13.746021,10.90633 C13.8556951,10.6521951 14.0626427,10.4450865 14.3169386,10.3354124 C15.3958037,9.8694985 16.4282869,10.9018206 15.962373,11.9806858 C15.8525378,12.2349816 15.6455903,12.4419292 15.3914554,12.5517644 M29.1506502,9.0217382 L13.8097963,9.0217382 C12.7711933,9.0217382 11.9215004,9.87143109 11.9215004,10.9100341 L11.9215004,13.7092213 L31.0389461,13.7092213 L31.0389461,10.9100341 C31.0389461,9.87143109 30.1892532,9.0217382 29.1506502,9.0217382" id="Fill-3" fill="#0D56A5"></path>
                <path d="M24.8120629,29.8646273 C18.8456921,32.9843015 12.8757783,27.0143876 15.9954524,21.0480169 C16.4760217,20.128912 17.2292464,19.3756873 18.1483513,18.895118 C24.1147221,15.7754438 30.084636,21.7453577 26.9649618,27.7117285 C26.4843925,28.6308333 25.7311678,29.3840581 24.8120629,29.8646273 M31.0390105,15.0133614 L11.9214037,15.0133614 L11.9214037,33.938676 L31.0390105,33.938676" id="Fill-5" fill="#0D56A5"></path>
                <path d="M25.4520221,23.6780386 C24.7250483,23.6780386 24.1356101,23.2945816 24.1356101,22.8217427 C24.1356101,23.2945816 23.5461719,23.6780386 22.8191981,23.6780386 C22.1139659,23.6780386 21.5398273,23.3169674 21.5060071,22.8636154 L21.4963442,22.8636154 C21.4322468,23.2976416 20.8703479,23.6369712 20.1863742,23.6369712 C19.4592393,23.6369712 18.8699622,23.2536753 18.8699622,22.7806753 C18.8699622,23.2536753 18.280524,23.6369712 17.5535502,23.6369712 C16.9319022,23.6369712 16.4123592,23.3565854 16.2743404,22.9797315 C16.0374378,23.8664655 16.0163404,24.8411322 16.2875464,25.8483307 C16.808539,27.7834918 18.3990558,29.2752858 20.3627225,29.6758139 C23.8505539,30.3871659 26.9151494,27.7414581 26.9151494,24.3798888 C26.9151494,23.9041509 26.8533067,23.4430685 26.7379959,23.0035667 C26.6096401,23.3891172 26.0830109,23.6780386 25.4520221,23.6780386" id="Fill-7" fill="#0D56A5"></path>
            </g>
        </g>
    </g>
</svg>