<?xml version="1.0" encoding="UTF-8" standalone="no"?>
<svg width="220px" height="75px" viewBox="0 0 220 75" version="1.1" xmlns="http://www.w3.org/2000/svg" xmlns:xlink="http://www.w3.org/1999/xlink">
    <!-- Generator: Sketch 3.6.1 (26313) - http://www.bohemiancoding.com/sketch -->
    <title>aquasenso-rolunk-logok-03</title>
    <desc>Created with Sketch.</desc>
    <defs>
        <path id="path-1" d="M19.8838608,28.3221456 L19.8838608,0.846702532 L0.411626582,0.846702532 L0.411626582,28.3221456 L19.8838608,28.3221456 L19.8838608,28.3221456 Z"></path>
    </defs>
    <g id="Page-1" stroke="none" stroke-width="1" fill="none" fill-rule="evenodd">
        <g id="aquasenso-rolunk-logok-03">
            <g id="Page-1" transform="translate(15.000000, 16.000000)">
                <g id="Group-3" transform="translate(0.000000, 6.310886)" fill="#000000">
                    <path d="M17.2203734,16.2201076 C16.8223354,15.6428924 16.2836013,15.1041582 15.6041709,14.6039051 C14.9247405,14.1036519 14.070943,13.6226392 13.0451835,13.1608671 L8.77379114,11.3137785 C7.59290506,10.8267532 6.82448734,10.2940316 6.46493038,9.71681646 C6.10537342,9.13960127 5.9261962,8.42770253 5.9261962,7.58112025 C5.9261962,7.17105696 5.97068987,6.77301899 6.06087975,6.38820886 C6.14986709,6.00339873 6.31701899,5.66308228 6.56113291,5.36846203 C6.80524684,5.07384177 7.13113291,4.83574051 7.54239873,4.65656329 C7.95246203,4.47738608 8.46594304,4.3871962 9.08163924,4.3871962 C10.1591076,4.3871962 10.9287278,4.73953797 11.3905,5.44542405 C11.8522722,6.15131013 12.0831582,7.15782911 12.0831582,8.46618354 L17.393538,8.46618354 L17.393538,7.69656329 C17.393538,6.38820886 17.1818924,5.26624684 16.7586013,4.32947468 C16.3353101,3.39270253 15.7448671,2.62308228 14.9884747,2.02061392 C14.2320823,1.41814557 13.3337911,0.981626582 12.2948038,0.712259494 C11.2558165,0.442892405 10.1206266,0.308208861 8.88923418,0.308208861 C6.24727215,0.308208861 4.16809494,0.975613924 2.65531013,2.30922152 C1.14132278,3.64282911 0.38493038,5.67029747 0.38493038,8.38922152 C0.38493038,9.51839873 0.525626582,10.5116899 0.808221519,11.3715 C1.09081646,12.2313101 1.5333481,12.9877025 2.13581646,13.6418797 C2.73828481,14.296057 3.48866456,14.8672595 4.3869557,15.3542848 C5.2840443,15.8413101 6.34948734,16.291057 7.58087975,16.7011203 C8.50442405,17.0089684 9.28005696,17.3108038 9.90898101,17.6054241 C10.5379051,17.9012468 11.0441709,18.2283354 11.428981,18.5866899 C11.8137911,18.9462468 12.0891709,19.3502975 12.2563228,19.7988418 C12.4222722,20.2473861 12.5064494,20.7801076 12.5064494,21.3958038 C12.5064494,22.5502342 12.1661329,23.4028291 11.4867025,23.9547911 C10.8072722,24.5067532 10.0436646,24.7821329 9.19708228,24.7821329 C8.45271519,24.7821329 7.85024684,24.6799177 7.38847468,24.4742848 C6.92670253,24.2698544 6.55512025,23.9872595 6.27252532,23.6277025 C5.98993038,23.2693481 5.79752532,22.8268165 5.69531013,22.3001076 C5.59309494,21.7746013 5.54138608,21.1913734 5.54138608,20.5492215 L5.54138608,19.7411203 L0.000120253165,19.7411203 L0.000120253165,20.8570696 C0.000120253165,23.3968165 0.673537975,25.3653608 2.02037342,26.7639051 C3.36720886,28.1624494 5.60512025,28.8611203 8.73531013,28.8611203 C11.7368291,28.8611203 14.0781582,28.1816899 15.7580949,26.8216266 C17.4380316,25.4615633 18.2786013,23.3330823 18.2786013,20.4337785 C18.2786013,19.5871962 18.2016392,18.8175759 18.0477152,18.1249177 C17.8937911,17.4322595 17.6184114,16.7973228 17.2203734,16.2201076" id="Fill-1"></path>
                </g>
                <path d="M36.5570823,11.3516582 L36.5570823,7.15722785 L20.7413861,7.15722785 L20.7413861,11.6979873 L30.1692342,11.6979873 L20.0487278,30.5921646 L20.0487278,34.6338734 L36.7110063,34.6338734 L36.7110063,30.0919114 L26.2826519,30.0919114 L36.5570823,11.3516582 Z" id="Fill-4" fill="#000000"></path>
                <path d="M52.6803861,0 L47.3700063,0 L45.2920316,5.54126582 L48.9092468,5.54126582 L52.6803861,0 Z" id="Fill-6" fill="#000000"></path>
                <path d="M45.0993861,22.7039177 L54.3348291,22.7039177 L54.3348291,18.1631582 L45.0993861,18.1631582 L45.0993861,11.6983481 L54.9120443,11.6983481 L54.9120443,7.15758861 L39.5581203,7.15758861 L39.5581203,34.6330316 L55.2968544,34.6330316 L55.2968544,30.0922722 L45.0993861,30.0922722 L45.0993861,22.7039177 Z" id="Fill-8" fill="#000000"></path>
                <path d="M68.7453671,18.5860886 C68.0647342,19.2534937 67.1736582,19.5865949 66.0709367,19.5865949 L63.6081519,19.5865949 L63.6081519,11.2362152 L65.9170127,11.2362152 C67.3023291,11.2362152 68.2896076,11.5957722 68.8800506,12.3136835 C69.4692911,13.0327975 69.7651139,14.0838101 69.7651139,15.4691266 C69.7651139,16.8808987 69.4247975,17.9198861 68.7453671,18.5860886 M73.6516962,9.7354557 C73.0612532,8.96583544 72.2856203,8.34412658 71.3235949,7.86912658 C70.3615696,7.39532911 69.1746709,7.15722785 67.7641013,7.15722785 L58.0668861,7.15722785 L58.0668861,34.6338734 L63.6081519,34.6338734 L63.6081519,23.6655823 L66.5711899,23.6655823 C67.8795443,23.6655823 69.0724557,23.4996329 70.1499241,23.1665316 C71.2273924,22.8322278 72.1449241,22.3331772 72.9013165,21.6645696 C73.6577089,20.9971646 74.2481519,20.1445696 74.671443,19.1055823 C75.0947342,18.0665949 75.3063797,16.8291899 75.3063797,15.3921646 C75.3063797,14.3664051 75.1777089,13.3598861 74.9215696,12.3714051 C74.6642278,11.3841266 74.2409367,10.5050759 73.6516962,9.7354557" id="Fill-10" fill="#000000"></path>
                <path d="M99.2789684,17.6626646 L92.8141582,17.6626646 L92.8141582,7.1573481 L87.2728924,7.1573481 L87.2728924,34.6327911 L92.8141582,34.6327911 L92.8141582,22.4343101 L99.2789684,22.4343101 L99.2789684,34.6327911 L104.821437,34.6327911 L104.821437,7.1573481 L99.2789684,7.1573481 L99.2789684,17.6626646 Z" id="Fill-12" fill="#000000"></path>
                <path d="M122.291576,0 L116.979994,0 L114.902019,5.54126582 L118.520437,5.54126582 L122.291576,0 Z" id="Fill-14" fill="#000000"></path>
                <path d="M114.748456,24.2822405 L117.403646,11.9286329 L117.48181,11.9286329 L120.135797,24.2822405 L114.748456,24.2822405 Z M114.017316,7.15698734 L106.744405,34.6336329 L112.517759,34.6336329 L113.78643,28.823 L121.099025,28.823 L122.368899,34.6336329 L128.141051,34.6336329 L120.866937,7.15698734 L114.017316,7.15698734 Z" id="Fill-16" fill="#000000"></path>
                <path d="M145.572709,11.3516582 L145.572709,7.15722785 L129.757013,7.15722785 L129.757013,11.6979873 L139.184861,11.6979873 L129.064354,30.5921646 L129.064354,34.6338734 L145.72543,34.6338734 L145.72543,30.0919114 L135.297076,30.0919114 L145.572709,11.3516582 Z" id="Fill-18" fill="#000000"></path>
                <path d="M154.652785,24.2822405 L157.307975,11.9286329 L157.386139,11.9286329 L160.040127,24.2822405 L154.652785,24.2822405 Z M153.921646,7.15698734 L146.648734,34.6336329 L152.422089,34.6336329 L153.690759,28.823 L161.003354,28.823 L162.273228,34.6336329 L168.04538,34.6336329 L160.771266,7.15698734 L153.921646,7.15698734 Z" id="Fill-20" fill="#000000"></path>
                <g id="Group-24" transform="translate(169.556962, 6.310886)">
                    <mask id="mask-2" fill="white">
                        <use xlink:href="#path-1"></use>
                    </mask>
                    <g id="Clip-23"></g>
                    <path d="M11.5711203,12.6218924 L19.0364367,0.846702532 L13.0333987,0.846702532 L6.02985443,11.8522722 L5.95289241,11.8522722 L5.95289241,0.846702532 L0.411626582,0.846702532 L0.411626582,28.3221456 L5.95289241,28.3221456 L5.95289241,20.1641709 L7.99238608,17.0472089 L13.6490949,28.3221456 L19.8842215,28.3221456 L11.5711203,12.6218924 Z" id="Fill-22" fill="#000000" mask="url(#mask-2)"></path>
                </g>
            </g>
        </g>
    </g>
</svg>