<?xml version="1.0" encoding="UTF-8" standalone="no"?>
<svg width="220px" height="75px" viewBox="0 0 220 75" version="1.1" xmlns="http://www.w3.org/2000/svg" xmlns:xlink="http://www.w3.org/1999/xlink">
    <!-- Generator: Sketch 3.6.1 (26313) - http://www.bohemiancoding.com/sketch -->
    <title>aquasenso-rolunk-logok-01</title>
    <desc>Created with Sketch.</desc>
    <defs></defs>
    <g id="Page-1" stroke="none" stroke-width="1" fill="none" fill-rule="evenodd">
        <g id="aquasenso-rolunk-logok-01">
            <g id="Page-1" transform="translate(21.000000, 18.000000)">
                <g id="Group-24" transform="translate(0.798883, 0.994361)">
                    <path d="M7.78820279,2.38492903 L0.272465363,2.38492903 L0.272465363,1.66905806 L22.9701637,1.66905806 L22.9701637,2.38492903 L15.4556497,2.38492903 L15.4556497,32.4502839 L24.8494039,32.4502839 C39.2801581,32.4502839 43.7898453,31.3323484 43.7898453,22.8767355 L44.9925101,22.8767355 L44.9925101,33.1661548 L0.272465363,33.1661548 L0.272465363,32.4502839 L7.78820279,32.4502839 L7.78820279,2.38492903 Z" id="Fill-2" fill="#E176A4"></path>
                    <path d="M85.131662,8.69354194 L84.981176,8.69354194 L77.6147011,22.2497355 L92.8725168,22.2497355 L85.131662,8.69354194 Z M93.2481201,22.9656065 L77.1644665,22.9656065 L74.0825615,28.6030903 C73.5564721,29.497929 72.9557514,30.5717355 72.9557514,31.3317355 C72.9557514,31.9581226 73.8574441,32.4508968 76.2627737,32.4508968 L80.1705168,32.4508968 L80.1705168,33.1667677 L64.6875838,33.1667677 L64.6875838,32.4508968 L67.0929134,32.4508968 C69.4223883,32.4508968 70.3999358,32.3160581 71.8277179,29.8117355 L87.9872263,0.9538 L88.8142877,0.9538 L107.07693,32.4508968 L113.315372,32.4508968 L113.315372,33.1667677 L91.2942486,33.1667677 L91.2942486,32.4508968 L98.6607235,32.4508968 L93.2481201,22.9656065 Z" id="Fill-4" fill="#E176A4"></path>
                    <path d="M137.821839,2.38492903 L130.982677,2.38492903 L130.982677,1.66905806 L153.079654,1.66905806 L153.079654,2.38492903 L145.489285,2.38492903 L145.489285,17.0602839 L159.693699,8.91725161 C162.023174,7.57499355 167.735526,4.21996129 167.735526,3.32512258 C167.735526,2.74286452 167.05895,2.38492903 164.654844,2.38492903 L160.444906,2.38492903 L160.444906,1.66905806 L180.136554,1.66905806 L180.136554,2.38492903 L177.581961,2.38492903 C173.146906,2.38492903 169.239163,4.62202581 166.908464,5.91892903 L152.102107,14.3757677 L173.823481,30.884929 C175.251263,31.9133806 175.777353,32.4502839 177.88171,32.4502839 L182.015794,32.4502839 L182.015794,33.1661548 L158.716151,33.1661548 L158.716151,32.4502839 L165.705799,32.4502839 L146.464386,17.6413161 L145.489285,18.0887355 L145.489285,32.4502839 L153.079654,32.4502839 L153.079654,33.1661548 L130.982677,33.1661548 L130.982677,32.4502839 L137.821839,32.4502839 L137.821839,2.38492903 Z" id="Fill-6" fill="#E176A4"></path>
                    <path d="M22.4554525,15.1660452 L22.707486,15.1660452 C22.707486,17.8235935 24.2710726,19.0739161 26.1662179,19.0739161 C27.6820894,19.0739161 28.7721955,18.1092065 28.7721955,16.6848194 C28.7721955,15.0385613 27.9206648,14.5494645 26.1025978,14.2638516 C23.6238603,13.8679161 22.4554525,13.457271 22.4554525,10.7984968 C22.4554525,8.99410968 23.6397654,7.68127097 25.4088939,7.68127097 C27.0348771,7.68127097 27.6515028,8.64720645 28.1886034,8.64720645 C28.5507486,8.64720645 28.5984637,8.25127097 28.6474022,8.04533548 L28.8994358,8.04533548 L28.8994358,11.3684968 L28.6474022,11.3684968 C28.504257,9.56410968 27.525486,7.9350129 25.4088939,7.9350129 C24.0655307,7.9350129 23.1185698,8.82004516 23.1185698,10.2763032 C23.1185698,11.7006903 23.6544469,12.0169484 26.2775531,12.4913355 C28.5837821,12.9032065 29.530743,13.647271 29.530743,15.7041742 C29.530743,17.7770129 28.3941453,19.3276581 26.1025978,19.3276581 C24.5231061,19.3276581 23.6874804,18.5051419 23.1026648,18.5051419 C22.7246145,18.5051419 22.707486,18.8998516 22.707486,19.169529 L22.4554525,19.169529 L22.4554525,15.1660452 Z" id="Fill-8" fill="#93969A"></path>
                    <path d="M41.1992832,8.18777419 L38.6557022,8.18777419 C35.4343223,8.18777419 35.3866073,9.43809677 35.3866073,11.0046774 L35.1345737,11.0046774 L35.1345737,7.93403226 L43.2045402,7.93403226 L36.4449034,18.8216452 L38.3241436,18.8216452 C40.4248307,18.8216452 43.0467134,18.7419677 43.0467134,16.542871 L43.0467134,15.909129 L43.2999704,15.909129 L43.2999704,19.0741613 L34.470233,19.0741613 L41.1992832,8.18777419 Z" id="Fill-10" fill="#93969A"></path>
                    <path d="M53.6561011,4.57973548 C53.8787715,4.35786452 54.0512799,4.1838 54.3363469,4.1838 C54.5565704,4.1838 54.8416374,4.40567097 54.8416374,4.72192903 C54.8416374,5.0394129 54.6201905,5.16567097 54.2091067,5.43412258 L51.9187827,6.85850968 L51.3670006,6.85850968 L53.6561011,4.57973548 Z M48.9971514,8.18728387 L47.6085201,8.18728387 L47.6085201,7.93476774 L56.0259503,7.93476774 L56.2155872,10.6241871 L55.9623302,10.6241871 C55.9623302,8.80509032 54.7621123,8.18728387 53.088414,8.18728387 L50.6084531,8.18728387 L50.6084531,13.2829613 L51.7939894,13.2829613 C53.4346542,13.2829613 53.5937045,12.2863806 53.5937045,11.257929 L53.845738,11.257929 L53.845738,15.4661226 L53.5937045,15.4661226 C53.5937045,14.2636065 53.4346542,13.5367032 51.7768609,13.5367032 L50.6084531,13.5367032 L50.6084531,18.8211548 L52.7715369,18.8211548 C55.3310229,18.8211548 56.5630508,18.5208323 56.5630508,15.8301871 L56.8150844,15.8301871 L56.8150844,19.0748968 L47.6085201,19.0748968 L47.6085201,18.8211548 L48.9971514,18.8211548 L48.9971514,8.18728387 Z" id="Fill-12" fill="#93969A"></path>
                    <path d="M64.8035682,13.5201548 C65.0396966,13.6782839 65.4972721,13.8523484 66.0196911,13.8523484 C67.0620821,13.8523484 68.5938587,13.2982839 68.5938587,11.162929 C68.5938587,9.09009032 67.6456743,8.18789677 65.7664341,8.18789677 L64.8035682,8.18789677 L64.8035682,13.5201548 Z M63.1922665,8.18789677 L61.6286799,8.18789677 L61.6286799,7.93415484 L66.1298028,7.93415484 C68.4837469,7.93415484 70.299367,8.74196129 70.299367,11.0195097 C70.299367,13.2517032 68.1986799,14.1060903 66.2876296,14.1060903 C65.7505291,14.1060903 65.1192218,13.9957677 64.8035682,13.8364129 L64.8035682,18.8217677 L66.4136464,18.8217677 L66.4136464,19.0742839 L61.6286799,19.0742839 L61.6286799,18.8217677 L63.1922665,18.8217677 L63.1922665,8.18789677 Z" id="Fill-14" fill="#93969A"></path>
                    <path d="M22.1316017,14.9368194 L22.3836352,14.9368194 C22.3836352,17.5943677 23.9472218,18.8446903 25.842367,18.8446903 C27.3582385,18.8446903 28.4483447,17.8799806 28.4483447,16.4555935 C28.4483447,14.8093355 27.5955905,14.3202387 25.7787469,14.0346258 C23.3000095,13.6386903 22.1316017,13.2280452 22.1316017,10.569271 C22.1316017,8.76488387 23.3159145,7.45204516 25.085043,7.45204516 C26.7110263,7.45204516 27.327652,8.41798065 27.8647525,8.41798065 C28.2268978,8.41798065 28.2746128,8.02204516 28.3235514,7.81610968 L28.5755849,7.81610968 L28.5755849,11.139271 L28.3235514,11.139271 C28.1804061,9.33488387 27.2016352,7.7057871 25.085043,7.7057871 C23.7416799,7.7057871 22.794719,8.59204516 22.794719,10.0470774 C22.794719,11.4714645 23.3305961,11.7877226 25.9537022,12.2621097 C28.2599313,12.6739806 29.2068922,13.4180452 29.2068922,15.4749484 C29.2068922,17.5477871 28.0702944,19.0984323 25.7787469,19.0984323 C24.1992553,19.0984323 23.3636296,18.2759161 22.778814,18.2759161 C22.4007637,18.2759161 22.3836352,18.6706258 22.3836352,18.9403032 L22.1316017,18.9403032 L22.1316017,14.9368194 Z" id="Fill-16" fill="#9CB2BB"></path>
                    <path d="M40.8743313,7.95842581 L38.3319737,7.95842581 C35.1105939,7.95842581 35.0628788,9.20874839 35.0628788,10.775329 L34.8096218,10.775329 L34.8096218,7.70468387 L42.8808117,7.70468387 L36.1211749,18.5922968 L38.0004151,18.5922968 C40.1011022,18.5922968 42.7229849,18.5126194 42.7229849,16.3135226 L42.7229849,15.6810065 L42.9762419,15.6810065 L42.9762419,18.8448129 L34.1465045,18.8448129 L40.8743313,7.95842581 Z" id="Fill-18" fill="#9CB2BB"></path>
                    <path d="M53.3311492,4.35050968 C53.5538196,4.12863871 53.7263279,3.95457419 54.011395,3.95457419 C54.2316184,3.95457419 54.5166855,4.17644516 54.5166855,4.49270323 C54.5166855,4.8101871 54.2952385,4.93644516 53.8841547,5.20489677 L51.5938307,6.62928387 L51.0420486,6.62928387 L53.3311492,4.35050968 Z M48.6721994,7.95805806 L47.2835682,7.95805806 L47.2835682,7.70554194 L55.7009983,7.70554194 L55.8906352,10.3949613 L55.6373782,10.3949613 C55.6373782,8.57586452 54.4371603,7.95805806 52.763462,7.95805806 L50.2835011,7.95805806 L50.2835011,13.0537355 L51.4690374,13.0537355 C53.1097022,13.0537355 53.2687525,12.0571548 53.2687525,11.0287032 L53.520786,11.0287032 L53.520786,15.2368968 L53.2687525,15.2368968 C53.2687525,14.0343806 53.1097022,13.3074774 51.4519089,13.3074774 L50.2835011,13.3074774 L50.2835011,18.591929 L52.4465849,18.591929 C55.0060709,18.591929 56.2380989,18.2916065 56.2380989,15.6009613 L56.4901324,15.6009613 L56.4901324,18.845671 L47.2835682,18.845671 L47.2835682,18.591929 L48.6721994,18.591929 L48.6721994,7.95805806 Z" id="Fill-20" fill="#9CB2BB"></path>
                    <path d="M64.4773927,13.2908065 C64.7135212,13.4489355 65.1710966,13.623 65.6935156,13.623 C66.7359067,13.623 68.2676832,13.0689355 68.2676832,10.9335806 C68.2676832,8.86074194 67.3194989,7.95854839 65.4402587,7.95854839 L64.4773927,7.95854839 L64.4773927,13.2908065 Z M62.8660911,7.95854839 L61.3025045,7.95854839 L61.3025045,7.70480645 L65.8036274,7.70480645 C68.1575715,7.70480645 69.9731916,8.5126129 69.9731916,10.7901613 C69.9731916,13.0223548 67.8725045,13.8767419 65.9614542,13.8767419 C65.4243536,13.8767419 64.7930464,13.7664194 64.4773927,13.6070645 L64.4773927,18.5924194 L66.0874709,18.5924194 L66.0874709,18.8449355 L61.3025045,18.8449355 L61.3025045,18.5924194 L62.8660911,18.5924194 L62.8660911,7.95854839 Z" id="Fill-22" fill="#9CB2BB"></path>
                </g>
            </g>
        </g>
    </g>
</svg>