<?xml version="1.0" encoding="UTF-8" standalone="no"?>
<svg width="45px" height="45px" viewBox="0 0 45 45" version="1.1" xmlns="http://www.w3.org/2000/svg" xmlns:xlink="http://www.w3.org/1999/xlink">
    <!-- Generator: Sketch 3.6.1 (26313) - http://www.bohemiancoding.com/sketch -->
    <title>aquasenso-section-3-icons-04</title>
    <desc>Created with Sketch.</desc>
    <defs></defs>
    <g id="Page-1" stroke="none" stroke-width="1" fill="none" fill-rule="evenodd">
        <g id="aquasenso-section-3-icons-04">
            <g id="Page-1" transform="translate(1.000000, 1.000000)">
                <path d="M32.7614745,18.062303 L17.5195045,18.062303 L17.5195045,23.5215315 L34.6067704,23.5215315 L34.6067704,19.9075989 C34.6067704,18.89267 33.7764034,18.062303 32.7614745,18.062303" id="Fill-1" fill="#0D56A5"></path>
                <path d="M10.1075929,24.7517824 L10.1075929,28.365715 C10.1075929,29.3806438 10.9379599,30.2110109 11.9528888,30.2110109 L32.7615067,30.2110109 C33.7764356,30.2110109 34.6068026,29.3806438 34.6068026,28.365715 L34.6068026,24.7517824 L10.1075929,24.7517824 Z" id="Fill-3" fill="#0D56A5"></path>
                <path d="M16.1512026,19.432006 C15.5425996,18.6018 14.5606858,18.0622869 13.4523487,18.0622869 C11.6051202,18.0622869 10.1075285,19.5598787 10.1075285,21.4071071 C10.1075285,22.2092906 10.39033,22.9452831 10.8610753,23.5215154 L16.0436221,23.5215154 C16.132521,23.4126464 16.2144948,23.2978187 16.2893824,23.1781596 C16.6106745,22.6644142 16.7970079,22.0575828 16.7970079,21.4071071 C16.7970079,20.6680547 16.5570453,19.9855303 16.1512026,19.432006" id="Fill-5" fill="#0D56A5"></path>
                <path d="M24.0730266,12.3333663 L22.3953824,12.3333663 C22.2655772,12.3333663 22.1475285,12.2584787 22.0921277,12.1412352 C22.0365659,12.0239918 22.0537981,11.8851678 22.136094,11.7848345 L23.2289704,10.4544112 L22.3953824,10.4544112 C22.2100154,10.4544112 22.059918,10.3043139 22.059918,10.1189468 C22.059918,9.93357978 22.2100154,9.78332135 22.3953824,9.78332135 L23.938873,9.78332135 C24.0685172,9.78332135 24.186727,9.85820899 24.2421277,9.97545243 C24.2976895,10.0928569 24.2804573,10.2316809 24.1980004,10.3318532 L23.105285,11.6622764 L24.0730266,11.6622764 C24.2583936,11.6622764 24.408491,11.8125348 24.408491,11.9979019 C24.408491,12.1831079 24.2583936,12.3333663 24.0730266,12.3333663 M21.2878506,12.3333663 L19.6102064,12.3333663 C19.4804011,12.3333663 19.3623524,12.2584787 19.3069517,12.1412352 C19.2513899,12.0239918 19.2686221,11.8851678 19.350918,11.7848345 L20.4437944,10.4544112 L19.6102064,10.4544112 C19.4248393,10.4544112 19.2747419,10.3043139 19.2747419,10.1189468 C19.2747419,9.93357978 19.4248393,9.78332135 19.6102064,9.78332135 L21.153697,9.78332135 C21.2833412,9.78332135 21.4015509,9.85820899 21.4569517,9.97545243 C21.5125135,10.0928569 21.4952813,10.2316809 21.4128243,10.3318532 L20.320109,11.6622764 L21.2878506,11.6622764 C21.4732176,11.6622764 21.623315,11.8125348 21.623315,11.9979019 C21.623315,12.1831079 21.4732176,12.3333663 21.2878506,12.3333663 M18.5026745,12.3333663 L16.8250303,12.3333663 C16.6952251,12.3333663 16.5771764,12.2584787 16.5217757,12.1412352 C16.4662139,12.0239918 16.4834461,11.8851678 16.5657419,11.7848345 L17.6586184,10.4544112 L16.8250303,10.4544112 C16.6396633,10.4544112 16.4895659,10.3043139 16.4895659,10.1189468 C16.4895659,9.93357978 16.6396633,9.78332135 16.8250303,9.78332135 L18.368521,9.78332135 C18.4981652,9.78332135 18.6163749,9.85820899 18.6717757,9.97545243 C18.7273375,10.0928569 18.7101052,10.2316809 18.6276483,10.3318532 L17.534933,11.6622764 L18.5026745,11.6622764 C18.6880416,11.6622764 18.838139,11.8125348 18.838139,11.9979019 C18.838139,12.1831079 18.6880416,12.3333663 18.5026745,12.3333663 M20.4896933,6.77493184 C17.1566296,6.77493184 14.4547157,8.74954981 14.4547157,11.1854112 C14.4547157,12.4523813 15.1870041,13.5938944 16.357667,14.3983326 L15.9163936,15.5957296 C15.848109,15.884812 16.1289779,16.1334712 16.4075921,16.0307221 L17.9293412,15.1794187 C18.7067232,15.4459543 19.5741315,15.5957296 20.4896933,15.5957296 C23.8225959,15.5957296 26.5245097,13.6211116 26.5245097,11.1854112 C26.5245097,8.74954981 23.8225959,6.77493184 20.4896933,6.77493184" id="Fill-7" fill="#0D56A5"></path>
                <path d="M42.9604464,21.4801588 C42.9604464,33.3433273 33.343424,42.9603498 21.4802554,42.9603498 C9.61708689,42.9603498 6.44194757e-05,33.3433273 6.44194757e-05,21.4801588 C6.44194757e-05,9.61699026 9.61708689,-3.22097379e-05 21.4802554,-3.22097379e-05 C33.343424,-3.22097379e-05 42.9604464,9.61699026 42.9604464,21.4801588 L42.9604464,21.4801588 Z" id="Stroke-9" stroke="#0D56A5" stroke-width="2"></path>
            </g>
        </g>
    </g>
</svg>