<?xml version="1.0" encoding="UTF-8" standalone="no"?>
<svg width="270px" height="84px" viewBox="0 0 270 84" version="1.1" xmlns="http://www.w3.org/2000/svg" xmlns:xlink="http://www.w3.org/1999/xlink">
    <!-- Generator: Sketch 3.6.1 (26313) - http://www.bohemiancoding.com/sketch -->
    <title>aquasenso-kekelit-brand</title>
    <desc>Created with Sketch.</desc>
    <defs></defs>
    <g id="Page-1" stroke="none" stroke-width="1" fill="none" fill-rule="evenodd">
        <g id="aquasenso-kekelit-brand" fill="#FEFEFE">
            <g id="Page-1">
                <g id="Group-3" transform="translate(0.000000, 0.714840)">
                    <path d="M51.5685349,41.64258 C51.5685349,33.87468 46.3359767,28.67508 46.3359767,28.67508 L67.873186,28.67508 L40.4524884,1.38558 L0.000627906977,41.64258 L40.4524884,81.89958 L67.873186,54.61218 L46.3359767,54.61218 C46.3359767,54.61218 51.5685349,49.41258 51.5685349,41.64258 M30.2741163,54.61218 C23.0762093,54.61218 17.2408605,48.80568 17.2408605,41.64258 C17.2408605,34.47948 23.0762093,28.67508 30.2741163,28.67508 C37.4720233,28.67508 43.3052791,34.47948 43.3052791,41.64258 C43.3052791,48.80568 37.4720233,54.61218 30.2741163,54.61218" id="Fill-1"></path>
                </g>
                <path d="M262.674,24.63195 C266.091907,24.63195 268.877721,21.83475 268.877721,18.36765 C268.877721,14.93415 266.091907,12.13485 262.674,12.13485 C259.222605,12.13485 256.438884,14.93415 256.438884,18.36765 C256.438884,21.83475 259.222605,24.63195 262.674,24.63195 M262.674,23.45595 C259.871442,23.45595 257.608884,21.19845 257.608884,18.36765 C257.608884,15.57045 259.871442,13.31085 262.674,13.31085 C265.457721,13.31085 267.705628,15.57045 267.705628,18.36765 C267.705628,21.19845 265.457721,23.45595 262.674,23.45595" id="Fill-4"></path>
                <path d="M262.101558,16.22229 C262.746209,16.20339 263.026674,16.23909 263.026674,17.06019 C263.026674,17.48229 262.936674,17.91489 262.553651,17.91489 L262.101558,17.91489 L262.101558,16.22229 Z M262.101558,19.15599 L262.536907,19.15599 C262.844581,19.18539 262.951326,19.46259 262.986907,19.88469 C263.026674,20.30889 262.997372,20.88009 263.018302,21.48489 C263.026674,21.62349 263.055977,21.75369 263.093651,21.88179 L264.537837,21.88179 L264.537837,21.79149 C264.47714,21.72639 264.441558,21.64239 264.410163,21.55209 C264.334814,21.10899 264.328535,19.92039 264.288767,19.37019 C264.267837,18.89139 264.004116,18.57849 263.635744,18.47769 L263.635744,18.45879 C264.190395,18.14589 264.334814,17.62089 264.334814,16.88379 C264.334814,15.51249 263.794814,14.98119 262.710628,14.98119 L260.776674,14.98119 L260.776674,21.88179 L262.101558,21.88179 L262.101558,19.15599 Z" id="Fill-6"></path>
                <path d="M167.359186,56.2737 L167.359186,22.8963 L160.699186,39.4674 L167.359186,56.2737 Z M194.340349,67.5528 L159.642209,67.5528 L151.810116,47.1618 L151.810116,67.5528 L140.725465,67.5528 L140.725465,12.1653 L151.810116,12.1653 L151.80593,33.3207 L159.95407,12.1653 L194.185465,12.1653 L194.185465,23.4381 L178.247093,23.4381 L178.247093,34.4526 L193.796163,34.4526 L193.796163,45.4356 L178.247093,45.4356 L178.247093,56.4879 L194.340349,56.4879 L194.340349,67.5528 Z M217.570814,67.5528 L196.115233,67.5528 L196.115233,12.1653 L207.070116,12.1653 L207.070116,56.4627 L217.570814,56.4627 L217.570814,67.5528 Z M219.39593,67.5528 L230.359186,67.5528 L230.359186,12.1653 L219.39593,12.1653 L219.39593,67.5528 Z M232.28686,12.1653 L254.255233,12.1653 L254.255233,23.4465 L248.752674,23.4465 L248.752674,67.5528 L237.86686,67.5528 L237.86686,23.4465 L232.28686,23.4465 L232.28686,12.1653 Z M102.159419,22.8963 L95.4994186,39.4674 L102.159419,56.2758 L102.159419,22.8963 Z M86.6103488,67.5528 L75.5256977,67.5528 L75.5256977,12.1653 L86.6103488,12.1653 L86.6061628,33.3207 L94.7522093,12.1653 L129.033837,12.1653 L129.033837,23.4381 L113.045233,23.4381 L113.045233,34.4526 L128.646628,34.4526 L128.646628,45.4356 L113.045233,45.4356 L113.045233,56.4879 L129.188721,56.4879 L129.188721,67.5528 L94.4424419,67.5528 L86.6103488,47.1618 L86.6103488,67.5528 Z" id="Fill-8"></path>
            </g>
        </g>
    </g>
</svg>