<?xml version="1.0" encoding="UTF-8" standalone="no"?>
<svg width="45px" height="45px" viewBox="0 0 45 45" version="1.1" xmlns="http://www.w3.org/2000/svg" xmlns:xlink="http://www.w3.org/1999/xlink">
    <!-- Generator: Sketch 3.6.1 (26313) - http://www.bohemiancoding.com/sketch -->
    <title>aquasenso-section-3-icons-01</title>
    <desc>Created with Sketch.</desc>
    <defs>
        <path id="path-1" d="M22.4575827,44.8421053 L0,44.8421053 L0,0.0844736842 L22.4575827,0.0844736842 L44.9151655,0.0844736842 L44.9151655,44.8421053 L22.4575827,44.8421053 L22.4575827,44.8421053 Z"></path>
    </defs>
    <g id="Page-1" stroke="none" stroke-width="1" fill="none" fill-rule="evenodd">
        <g id="aquasenso-section-3-icons-01">
            <g id="Page-1">
                <g id="Group-3" transform="translate(0.000000, 0.073421)">
                    <mask id="mask-2" fill="white">
                        <use xlink:href="#path-1"></use>
                    </mask>
                    <g id="Clip-2"></g>
                    <path d="M22.4576303,44.8421053 C10.0743908,44.8421053 -6.33802817e-05,34.803 -6.33802817e-05,22.4633684 C-6.33802817e-05,10.1235789 10.0743908,0.0844736842 22.4576303,0.0844736842 C34.8407113,0.0844736842 44.9151655,10.1235789 44.9151655,22.4633684 C44.9151655,34.803 34.8407113,44.8421053 22.4576303,44.8421053" id="Fill-1" fill="#0D56A5" mask="url(#mask-2)"></path>
                </g>
                <path d="M27.1519701,28.5924789 C27.3612835,28.8010579 27.3612835,29.1394263 27.1519701,29.3480053 L26.0379032,30.4581632 C25.8285898,30.6667421 25.4890299,30.6667421 25.2797165,30.4581632 L22.4575511,27.6459 L19.635544,30.4581632 C19.4260722,30.6667421 19.0866708,30.6667421 18.8773574,30.4581632 L17.7632905,29.3480053 C17.5538187,29.1394263 17.5538187,28.8010579 17.7632905,28.5924789 L20.5852975,25.7802158 L17.7632905,22.9681105 C17.5538187,22.7593737 17.5538187,22.4211632 17.7632905,22.2125842 L18.8773574,21.1024263 C19.0866708,20.8936895 19.4260722,20.8936895 19.635544,21.1024263 L22.4575511,23.9145316 L25.2797165,21.1024263 C25.4890299,20.8936895 25.8285898,20.8936895 26.0379032,21.1024263 L27.1519701,22.2125842 C27.3612835,22.4211632 27.3612835,22.7593737 27.1519701,22.9681105 L24.3298046,25.7802158 L27.1519701,28.5924789 Z M18.3441708,16.0602158 C18.3441708,13.7999526 20.1893292,11.9611105 22.4575511,11.9611105 C24.7257729,11.9611105 26.5710898,13.7999526 26.5710898,16.0602158 L26.5710898,18.3359526 L18.3441708,18.3359526 L18.3441708,16.0602158 Z M29.9280264,18.3359526 L29.2188011,18.3359526 L29.2188011,16.0602158 C29.2188011,12.3451105 26.1857377,9.32268947 22.4575511,9.32268947 C18.7295229,9.32268947 15.6963011,12.3451105 15.6963011,16.0602158 L15.6963011,18.3359526 L14.9870757,18.3359526 C13.7389595,18.3359526 12.7175863,19.3537421 12.7175863,20.5976368 L12.7175863,30.9629526 C12.7175863,32.2068474 13.7389595,33.2244789 14.9870757,33.2244789 L29.9280264,33.2244789 C31.1763011,33.2244789 32.1975158,32.2068474 32.1975158,30.9629526 L32.1975158,20.5976368 C32.1975158,19.3537421 31.1763011,18.3359526 29.9280264,18.3359526 L29.9280264,18.3359526 Z" id="Fill-4" fill="#FEFEFE"></path>
            </g>
        </g>
    </g>
</svg>